<svg width="39" height="40" viewBox="0 0 39 40" fill="none" xmlns="http://www.w3.org/2000/svg">
<path d="M19.3339 40C27.2975 40 33.7533 33.5443 33.7533 25.5807C33.7533 17.6171 27.2975 11.1613 19.3339 11.1613C11.3703 11.1613 4.91455 17.6171 4.91455 25.5807C4.91455 33.5443 11.3703 40 19.3339 40Z" fill="#FFD600"/>
<path opacity="0.15" d="M19.3335 11.1613C17.3271 11.1613 15.4174 11.5742 13.6819 12.3162C12.94 14.0516 12.5271 15.9613 12.5271 17.9678C12.5271 25.929 18.9852 32.3871 26.9464 32.3871C28.9529 32.3871 30.8626 31.9742 32.5981 31.2323C33.34 29.4968 33.7529 27.5871 33.7529 25.5807C33.7529 17.6129 27.2948 11.1613 19.3335 11.1613Z" fill="white"/>
<path opacity="0.15" d="M19.3337 11.1613C18.6821 11.1613 18.0369 11.2065 17.4111 11.2903C17.4627 12.3097 18.3015 13.1291 19.3337 13.1291C26.2176 13.1291 31.8176 18.729 31.8176 25.6129V25.6452C31.8369 26.8774 33.7531 26.8387 33.7531 25.6065C33.7531 25.6 33.7531 25.5936 33.7531 25.5807C33.7531 17.6129 27.295 11.1613 19.3337 11.1613Z" fill="white"/>
<path d="M37.4822 4.95482L20.7919 0.20643C19.8371 -0.0645376 18.8242 -0.0645376 17.8694 0.20643L1.18548 4.95482C-0.395161 5.40643 -0.395161 7.49675 1.18548 7.94837L17.8758 12.7032C18.8306 12.9742 19.8435 12.9742 20.7984 12.7032L37.4887 7.94837C39.0629 7.49675 39.0629 5.40643 37.4822 4.95482Z" fill="#0487F3"/>
<path d="M36.3467 20.4322C37.4691 20.4322 38.379 19.5224 38.379 18.4C38.379 17.2776 37.4691 16.3677 36.3467 16.3677C35.2243 16.3677 34.3145 17.2776 34.3145 18.4C34.3145 19.5224 35.2243 20.4322 36.3467 20.4322Z" fill="#D50000"/>
<path d="M37.4822 7.94838L34.3145 8.85161L35.2628 16.6903C35.579 16.4903 35.9467 16.3742 36.3403 16.3742C36.7338 16.3742 37.108 16.4903 37.4177 16.6903L38.6177 6.78064C38.5145 7.29032 38.1403 7.76128 37.4822 7.94838Z" fill="#0487F3"/>
<path d="M20.7919 12.6968C19.837 12.9677 18.8241 12.9677 17.8693 12.6968L7.83057 9.83871V17C15.1919 20.0516 23.4693 20.0516 30.837 17C30.837 14.6129 30.837 12.2258 30.837 9.83871L20.7919 12.6968Z" fill="#0073DF"/>
<path opacity="0.15" d="M37.4821 4.95484L20.7918 0.206452C20.3208 0.0709677 19.8241 0 19.3337 0V3.09677C19.3337 4.94839 20.837 6.45161 22.6886 6.45161H38.6692C38.6692 5.81935 38.2757 5.18064 37.4821 4.95484Z" fill="white"/>
<path opacity="0.15" d="M36.3464 16.3742C36.0948 16.3742 35.8561 16.4258 35.6367 16.5097C35.5528 16.729 35.5012 16.9678 35.5012 17.2194C35.5012 18.3419 36.4109 19.2516 37.5335 19.2516C37.7851 19.2516 38.0238 19.2 38.2432 19.1161C38.327 18.8968 38.3786 18.6581 38.3786 18.4065C38.3786 17.2839 37.469 16.3742 36.3464 16.3742Z" fill="white"/>
<path d="M19.3336 26.3871C18.2626 26.3871 17.3852 25.5161 17.3852 24.4387C17.3852 23.3613 18.2562 22.4903 19.3336 22.4903C20.4046 22.4903 21.282 23.3613 21.282 24.4387C21.282 24.7032 21.5014 24.9226 21.7659 24.9226C22.0304 24.9226 22.2498 24.7032 22.2498 24.4387C22.2498 23 21.1981 21.8065 19.8175 21.5742V20.5742C19.8175 20.3097 19.5981 20.0903 19.3336 20.0903C19.0691 20.0903 18.8497 20.3097 18.8497 20.5742V21.5742C17.4755 21.8065 16.4175 23 16.4175 24.4387C16.4175 26.0452 17.7272 27.3548 19.3336 27.3548C20.4046 27.3548 21.282 28.2258 21.282 29.3032C21.282 30.3806 20.411 31.2516 19.3336 31.2516C18.2626 31.2516 17.3852 30.3806 17.3852 29.3032C17.3852 29.0387 17.1659 28.8194 16.9014 28.8194C16.6368 28.8194 16.4175 29.0387 16.4175 29.3032C16.4175 30.7419 17.4691 31.9355 18.8497 32.1677V33.1677C18.8497 33.4323 19.0691 33.6516 19.3336 33.6516C19.5981 33.6516 19.8175 33.4323 19.8175 33.1677V32.1677C21.1917 31.9355 22.2498 30.7419 22.2498 29.3032C22.2498 27.6968 20.9401 26.3871 19.3336 26.3871Z" fill="white"/>
</svg>
