<svg width="40" height="40" viewBox="0 0 40 40" fill="none" xmlns="http://www.w3.org/2000/svg">
<path d="M21.0938 40H0V18.9062H21.0938V40Z" fill="#D50000"/>
<path d="M10.5469 18.9062H21.0938V40H10.5469V18.9062Z" fill="#D50000"/>
<path d="M40 40H23.5938V14.2188H40V40Z" fill="#8594A7"/>
<path d="M31.7969 14.2188H40V40H31.7969V14.2188Z" fill="#8594A7"/>
<path d="M0 0V14.0155L8.20312 12.8906L21.0938 14.0625V0H0Z" fill="#0487F3"/>
<path d="M10.5469 13.1036L21.0938 14.0625V0H10.5469V13.1036Z" fill="#0487F3"/>
<path d="M40 11.7188H23.5938V0H40V11.7188Z" fill="#00C853"/>
<path d="M7.03125 36.3299V22.5764L17.347 29.4531L7.03125 36.3299Z" fill="#ECF2FF"/>
<path d="M28.2812 18.9062H35.3125V21.25H28.2812V18.9062Z" fill="white"/>
<path d="M28.2812 23.5938H35.3125V25.9375H28.2812V23.5938Z" fill="white"/>
<path d="M28.2812 28.2812H35.3125V30.625H28.2812V28.2812Z" fill="white"/>
<path d="M28.2812 32.9688H35.3125V35.3125H28.2812V32.9688Z" fill="white"/>
<path d="M21.0938 14.0625V16.4062H0V14.0155L5.85938 8.20312L8.20312 10.5469L12.8906 5.85938L21.0938 14.0625Z" fill="white"/>
<path d="M10.5469 8.20312V16.4062H21.0938V14.0625L12.8906 5.85938L10.5469 8.20312Z" fill="#E0E4E9"/>
<path d="M31.7969 0H40V11.7188H31.7969V0Z" fill="#5CDC91"/>
<path d="M31.7969 32.9688H35.3125V35.3125H31.7969V32.9688Z" fill="#E0E4E9"/>
<path d="M31.7969 28.2812H35.3125V30.625H31.7969V28.2812Z" fill="#E0E4E9"/>
<path d="M31.7969 23.5938H35.3125V25.9375H31.7969V23.5938Z" fill="#E0E4E9"/>
<path d="M31.7969 18.9062H35.3125V21.25H31.7969V18.9062Z" fill="#E0E4E9"/>
<path d="M10.5469 33.9862L17.347 29.453L10.5469 24.9199V33.9862Z" fill="#D9E5FF"/>
</svg>
