<svg width="40" height="40" viewBox="0 0 40 40" fill="none" xmlns="http://www.w3.org/2000/svg">
<path d="M40 36.3455C40 37.0683 39.7829 37.7749 39.3763 38.3758C38.9696 38.9768 38.3916 39.4452 37.7154 39.7218C37.0392 39.9984 36.295 40.0708 35.5771 39.9298C34.8592 39.7888 34.1998 39.4407 33.6822 38.9296C33.1646 38.4185 32.8122 37.7674 32.6694 37.0585C32.5266 36.3496 32.5999 35.6148 32.88 34.947C33.1601 34.2793 33.6344 33.7085 34.243 33.307C34.8517 32.9054 35.5672 32.6911 36.2991 32.6911C37.2807 32.6911 38.222 33.0761 38.916 33.7614C39.6101 34.4468 40 35.3763 40 36.3455ZM19.4719 33.2325C18.9496 33.2325 18.4391 33.3854 18.0048 33.6719C17.5706 33.9584 17.2321 34.3657 17.0323 34.8421C16.8324 35.3186 16.7801 35.8429 16.882 36.3487C16.9839 36.8545 17.2354 37.3191 17.6047 37.6837C17.974 38.0484 18.4445 38.2967 18.9567 38.3974C19.469 38.498 19.9999 38.4463 20.4824 38.249C20.9649 38.0516 21.3773 37.7174 21.6675 37.2886C21.9576 36.8598 22.1125 36.3557 22.1125 35.84C22.1125 35.1484 21.8343 34.4852 21.3391 33.9962C20.8439 33.5072 20.1722 33.2325 19.4719 33.2325ZM19.4719 3.03109e-06C18.9485 -0.000784232 18.4366 0.151802 18.0011 0.43845C17.5656 0.725099 17.226 1.13291 17.0253 1.61025C16.8246 2.0876 16.7719 2.61301 16.8738 3.11995C16.9758 3.6269 17.2277 4.09259 17.5978 4.45805C17.9679 4.82351 18.4395 5.0723 18.9529 5.17294C19.4663 5.27358 19.9984 5.22153 20.4818 5.02338C20.9652 4.82523 21.3782 4.4899 21.6685 4.05984C21.9587 3.62977 22.1133 3.12432 22.1125 2.60748C22.1125 1.91593 21.8343 1.25271 21.3391 0.763708C20.8439 0.27471 20.1722 3.03109e-06 19.4719 3.03109e-06ZM5.28925 19.2237C5.28925 18.7072 5.13415 18.2023 4.84355 17.7729C4.55296 17.3434 4.13993 17.0087 3.65668 16.811C3.17344 16.6134 2.6417 16.5617 2.12869 16.6624C1.61568 16.7632 1.14445 17.0119 0.774597 17.3771C0.404739 17.7424 0.152862 18.2077 0.0508181 18.7143C-0.0512255 19.2208 0.00114269 19.7459 0.201308 20.2231C0.401474 20.7003 0.740448 21.1081 1.17535 21.3951C1.61026 21.682 2.12157 21.8352 2.64463 21.8352C3.34603 21.8352 4.0187 21.5601 4.51466 21.0703C5.01063 20.5806 5.28925 19.9163 5.28925 19.2237ZM38.9397 19.2237C38.9389 18.7082 38.7834 18.2045 38.4927 17.7762C38.2021 17.3479 37.7894 17.0143 37.3069 16.8176C36.8243 16.6208 36.2935 16.5698 35.7815 16.6708C35.2696 16.7719 34.7994 17.0205 34.4305 17.3853C34.0616 17.7502 33.8105 18.2148 33.709 18.7205C33.6074 19.2262 33.66 19.7502 33.8599 20.2265C34.0599 20.7027 34.3984 21.1097 34.8325 21.396C35.2667 21.6824 35.777 21.8352 36.2991 21.8352C36.6462 21.8352 36.9899 21.7676 37.3106 21.6363C37.6312 21.505 37.9225 21.3126 38.1677 21.0701C38.413 20.8275 38.6074 20.5396 38.7399 20.2228C38.8723 19.906 38.9403 19.5665 38.9397 19.2237ZM9.44164 29.1282C9.07219 28.7639 8.60168 28.516 8.08956 28.4157C7.57744 28.3154 7.04671 28.3672 6.56443 28.5647C6.08215 28.7622 5.66998 29.0964 5.38 29.5251C5.09002 29.9538 4.93525 30.4578 4.93525 30.9733C4.93525 31.4889 5.09002 31.9929 5.38 32.4216C5.66998 32.8503 6.08215 33.1845 6.56443 33.382C7.04671 33.5794 7.57744 33.6313 8.08956 33.531C8.60168 33.4307 9.07219 33.1828 9.44164 32.8185C9.68726 32.5763 9.88212 32.2887 10.0151 31.9721C10.148 31.6555 10.2164 31.3161 10.2164 30.9733C10.2164 30.6306 10.148 30.2912 10.0151 29.9746C9.88212 29.658 9.68726 29.3704 9.44164 29.1282ZM33.2272 5.64092C32.858 5.27608 32.3874 5.02757 31.8752 4.92682C31.3629 4.82607 30.8319 4.87761 30.3493 5.07491C29.8666 5.27221 29.4541 5.60642 29.1639 6.03526C28.8737 6.46409 28.7188 6.96829 28.7188 7.48408C28.7188 7.99986 28.8737 8.50406 29.1639 8.93289C29.4541 9.36173 29.8666 9.69594 30.3493 9.89324C30.8319 10.0905 31.3629 10.1421 31.8752 10.0413C32.3874 9.94058 32.858 9.69207 33.2272 9.32723C33.4755 9.08708 33.6734 8.80087 33.8095 8.48503C33.9456 8.16919 34.0172 7.82994 34.0202 7.48671C34.0232 7.14349 33.9575 6.80305 33.827 6.48494C33.6964 6.16683 33.5035 5.8773 33.2594 5.63296L33.2272 5.64092ZM9.44164 9.32723C9.81054 8.96241 10.0616 8.49779 10.1632 7.9921C10.2648 7.4864 10.2123 6.96232 10.0123 6.48609C9.81231 6.00987 9.47386 5.60287 9.0397 5.31652C8.60554 5.03018 8.09517 4.87735 7.57307 4.87735C7.05098 4.87735 6.5406 5.03018 6.10644 5.31652C5.67229 5.60287 5.33383 6.00987 5.13386 6.48609C4.93388 6.96232 4.88135 7.4864 4.98292 7.9921C5.08449 8.49779 5.33559 8.96241 5.70449 9.32723C5.95001 9.56972 6.24161 9.76194 6.56257 9.89284C6.88352 10.0237 7.2275 10.0907 7.57475 10.09C7.92199 10.0893 8.26567 10.0208 8.58605 9.88853C8.90643 9.75626 9.19719 9.56281 9.44164 9.31927V9.32723ZM33.2272 32.8145C33.5961 32.4497 33.8472 31.9851 33.9487 31.4794C34.0503 30.9737 33.9978 30.4496 33.7978 29.9734C33.5978 29.4971 33.2594 29.0901 32.8252 28.8038C32.3911 28.5174 31.8807 28.3646 31.3586 28.3646C30.8365 28.3646 30.3261 28.5174 29.892 28.8038C29.4578 29.0901 29.1194 29.4971 28.9194 29.9734C28.7194 30.4496 28.6669 30.9737 28.7684 31.4794C28.87 31.9851 29.1211 32.4497 29.49 32.8145C29.7356 33.0621 30.0286 33.2589 30.3521 33.3934C30.6756 33.5278 31.0229 33.5973 31.3739 33.5977C31.7248 33.598 32.0723 33.5293 32.3961 33.3955C32.7198 33.2617 33.0133 33.0656 33.2594 32.8185L33.2272 32.8145ZM15.1179 29.594C14.7312 29.4357 14.3057 29.3942 13.8951 29.4748C13.4845 29.5554 13.1073 29.7543 12.8113 30.0466C12.5152 30.3388 12.3136 30.7112 12.2318 31.1166C12.1501 31.522 12.1919 31.9422 12.3521 32.3241C12.5122 32.706 12.7834 33.0325 13.1314 33.2622C13.4794 33.4919 13.8886 33.6146 14.3072 33.6146C14.7258 33.6147 15.135 33.4922 15.4831 33.2626C15.8312 33.0331 16.1026 32.7067 16.2628 32.3248C16.3698 32.0714 16.425 31.7995 16.4254 31.5249C16.4257 31.2503 16.3711 30.9783 16.2647 30.7246C16.1583 30.4709 16.0023 30.2404 15.8055 30.0464C15.6087 29.8523 15.375 29.6986 15.1179 29.594ZM25.4183 4.99602C25.0315 4.83776 24.606 4.7963 24.1954 4.87686C23.7848 4.95743 23.4077 5.15641 23.1116 5.44864C22.8156 5.74088 22.6139 6.11323 22.5322 6.51863C22.4504 6.92403 22.4923 7.34427 22.6524 7.72619C22.8125 8.10811 23.0837 8.43456 23.4317 8.66427C23.7798 8.89399 24.1889 9.01664 24.6075 9.01672C25.0262 9.0168 25.4354 8.8943 25.7835 8.66471C26.1316 8.43513 26.4029 8.10878 26.5632 7.72692C26.6711 7.47423 26.7273 7.20299 26.7287 6.92878C26.7301 6.65457 26.6767 6.38279 26.5714 6.12904C26.4661 5.87529 26.3111 5.64457 26.1153 5.45014C25.9195 5.2557 25.6867 5.10137 25.4303 4.99602H25.4183ZM8.98206 14.9283C9.14407 14.5465 9.18735 14.1257 9.1064 13.7195C9.02545 13.3133 8.82392 12.9401 8.52748 12.6473C8.23103 12.3546 7.85308 12.1555 7.44172 12.0756C7.03036 11.9956 6.60421 12.0383 6.21751 12.1983C5.83081 12.3582 5.50106 12.6282 5.27022 12.9738C5.03939 13.3194 4.91792 13.725 4.92127 14.1389C4.92461 14.5529 5.05263 14.9566 5.28903 15.2985C5.52542 15.6404 5.8595 15.9051 6.24874 16.0589C6.76496 16.2649 7.3426 16.2618 7.8565 16.0502C8.37039 15.8386 8.77913 15.4355 8.99415 14.9283H8.98206ZM33.844 25.1194C34.0034 24.7382 34.0449 24.3189 33.9631 23.9144C33.8812 23.51 33.6798 23.1385 33.3843 22.8471C33.0887 22.5556 32.7123 22.3572 32.3026 22.277C31.8929 22.1967 31.4683 22.2382 31.0825 22.3961C30.6966 22.5541 30.3669 22.8215 30.1349 23.1644C29.9029 23.5074 29.779 23.9106 29.779 24.3231C29.779 24.7355 29.9028 25.1387 30.1348 25.4817C30.3668 25.8247 30.6966 26.092 31.0824 26.25C31.3397 26.3563 31.6156 26.4114 31.8944 26.4121C32.1733 26.4127 32.4495 26.359 32.7072 26.254C32.965 26.1489 33.1991 25.9946 33.3963 25.7999C33.5935 25.6052 33.7497 25.3739 33.8561 25.1194H33.844ZM8.98206 23.5271C8.82076 23.1458 8.54841 22.8204 8.19956 22.5922C7.85071 22.3639 7.44108 22.2432 7.02262 22.2452C6.60416 22.2472 6.19572 22.3718 5.84912 22.6034C5.50252 22.8349 5.23337 23.1629 5.07581 23.5457C4.91825 23.9285 4.87937 24.3489 4.96412 24.7536C5.04886 25.1582 5.25341 25.5289 5.55181 25.8186C5.85021 26.1083 6.22902 26.304 6.64019 26.3808C7.05137 26.4576 7.47638 26.4121 7.86132 26.25C8.11736 26.1442 8.34978 25.9897 8.5453 25.7951C8.74082 25.6006 8.8956 25.37 9.0008 25.1163C9.10601 24.8627 9.15957 24.5911 9.15843 24.3171C9.15729 24.043 9.10147 23.7719 8.99415 23.5191L8.98206 23.5271ZM33.844 13.34C33.6834 12.9594 33.4123 12.6344 33.0648 12.406C32.7173 12.1775 32.3091 12.0558 31.8916 12.0563C31.4741 12.0568 31.0662 12.1794 30.7192 12.4086C30.3723 12.6379 30.1019 12.9635 29.9422 13.3444C29.7825 13.7253 29.7407 14.1443 29.822 14.5487C29.9033 14.953 30.1041 15.3245 30.3991 15.6162C30.6941 15.9079 31.07 16.1068 31.4793 16.1877C31.8886 16.2686 32.3131 16.228 32.699 16.0709C32.9582 15.9674 33.194 15.8142 33.3927 15.6201C33.5915 15.426 33.7492 15.1948 33.8569 14.9401C33.9645 14.6853 34.0198 14.412 34.0197 14.136C34.0196 13.8599 33.964 13.5867 33.8561 13.332L33.844 13.34ZM15.1179 8.8535C15.5051 8.69583 15.8362 8.42827 16.0694 8.08468C16.3025 7.7411 16.4272 7.33693 16.4275 6.92335C16.4279 6.50977 16.3041 6.10539 16.0716 5.76136C15.8391 5.41734 15.5085 5.14915 15.1216 4.99076C14.7347 4.83236 14.3089 4.79088 13.8982 4.87155C13.4874 4.95223 13.1101 5.15145 12.814 5.44398C12.5179 5.73651 12.3164 6.1092 12.2349 6.51487C12.1535 6.92055 12.1957 7.34098 12.3564 7.72293C12.5713 8.23401 12.9828 8.64004 13.5004 8.85198C14.0181 9.06393 14.5998 9.06448 15.1179 8.8535ZM25.4142 33.4514C25.8014 33.2938 26.1325 33.0262 26.3657 32.6826C26.5988 32.339 26.7235 31.9349 26.7239 31.5213C26.7243 31.1077 26.6004 30.7033 26.3679 30.3593C26.1354 30.0153 25.8048 29.7471 25.4179 29.5887C25.0311 29.4303 24.6053 29.3888 24.1945 29.4695C23.7837 29.5502 23.4064 29.7494 23.1103 30.0419C22.8142 30.3344 22.6127 30.7071 22.5313 31.1128C22.4498 31.5185 22.4921 31.9389 22.6527 32.3209C22.7587 32.5762 22.9148 32.8083 23.1121 33.0038C23.3094 33.1992 23.5439 33.3541 23.8021 33.4596C24.0604 33.5651 24.3372 33.619 24.6167 33.6183C24.8961 33.6176 25.1727 33.5622 25.4303 33.4554L25.4142 33.4514Z" fill="url(#paint0_linear_3981_3815)"/>
<defs>
<linearGradient id="paint0_linear_3981_3815" x1="0.00403263" y1="20" x2="40" y2="20" gradientUnits="userSpaceOnUse">
<stop stop-color="#3F7FBC"/>
<stop offset="0.51" stop-color="#52BDCA"/>
<stop offset="1" stop-color="#5DB467"/>
</linearGradient>
</defs>
</svg>
