<svg width="40" height="40" viewBox="0 0 40 40" fill="none" xmlns="http://www.w3.org/2000/svg">
<path d="M35.7801 9.89899L20.4079 0.183525C20.0214 -0.0608496 19.5286 -0.0608496 19.1421 0.183525L3.76988 9.89899C3.32402 10.1807 3.11824 10.7233 3.2648 11.2298C3.41145 11.7365 3.87535 12.0851 4.40277 12.0851H35.1471C35.6746 12.0851 36.1384 11.7365 36.2851 11.2298C36.4318 10.7233 36.2259 10.1807 35.7801 9.89899Z" fill="#87C5F9"/>
<path d="M33.1256 12.7935H29.0028C28.3485 12.7935 27.8181 13.3238 27.8181 13.9781V31.3293C27.8181 31.9836 28.3485 32.514 29.0028 32.514H33.1256C33.7799 32.514 34.3103 31.9836 34.3103 31.3293V13.9781C34.3103 13.3238 33.7799 12.7935 33.1256 12.7935Z" fill="#87C5F9"/>
<path d="M21.8363 12.7935H17.7135C17.0592 12.7935 16.5288 13.3238 16.5288 13.9781V31.3293C16.5288 31.9836 17.0592 32.514 17.7135 32.514H21.8363C22.4906 32.514 23.021 31.9836 23.021 31.3293V13.9781C23.0211 13.3238 22.4907 12.7935 21.8363 12.7935Z" fill="#87C5F9"/>
<path d="M10.4662 12.7935H6.34338C5.68908 12.7935 5.15869 13.3238 5.15869 13.9781V31.3293C5.15869 31.9836 5.68908 32.514 6.34338 32.514H10.4662C11.1205 32.514 11.6509 31.9836 11.6509 31.3293V13.9781C11.6509 13.3238 11.1204 12.7935 10.4662 12.7935Z" fill="#87C5F9"/>
<path d="M10.4662 12.7931H8.40479V32.5143H10.4662C11.1202 32.5143 11.6509 31.9835 11.6509 31.3296V13.9778C11.6509 13.3238 11.1201 12.7931 10.4662 12.7931Z" fill="#5EB2F7"/>
<path d="M37.3442 9.71582H2.20626C0.989932 9.71582 0.000244141 10.7054 0.000244141 11.9218V14.1897C0.000244141 15.4061 0.989854 16.3957 2.20626 16.3957H37.3443C38.5606 16.3957 39.5504 15.4061 39.5504 14.1897V11.9218C39.5503 10.7054 38.5606 9.71582 37.3442 9.71582Z" fill="#0487F3"/>
<path d="M35.1474 29.0093H4.40295C3.74865 29.0093 3.21826 29.5397 3.21826 30.194V34.5046C3.21826 35.1589 3.74865 35.6893 4.40295 35.6893H35.1473C35.8016 35.6893 36.332 35.1589 36.332 34.5046V30.194C36.3321 29.5397 35.8017 29.0093 35.1474 29.0093Z" fill="#0487F3"/>
<path d="M38.3655 33.3198H1.18469C0.530391 33.3198 0 33.8502 0 34.5045V38.815C0 39.4693 0.530391 39.9997 1.18469 39.9997H38.3654C39.0197 39.9997 39.5501 39.4693 39.5501 38.815V34.5045C39.5502 33.8502 39.0197 33.3198 38.3655 33.3198Z" fill="#0073DF"/>
<path d="M36.2851 11.2301C36.139 11.7363 35.6745 12.0854 35.1469 12.0854H19.7751V0C19.9947 0 20.2143 0.0607812 20.4078 0.183203L35.4905 9.71602L35.7804 9.89922C36.2258 10.1805 36.4319 10.723 36.2851 11.2301Z" fill="#5EB2F7"/>
<path d="M33.1258 12.7932H31.0645V32.5143H33.1258C33.7798 32.5143 34.3105 31.9835 34.3105 31.3296V13.9778C34.3105 13.3239 33.7798 12.7932 33.1258 12.7932Z" fill="#5EB2F7"/>
<path d="M21.8365 12.7932H19.7751V32.5143H21.8366C22.4905 32.5143 23.0212 31.9835 23.0212 31.3296V13.9778C23.0212 13.3239 22.4905 12.7932 21.8365 12.7932Z" fill="#5EB2F7"/>
<path d="M39.5501 11.9219V14.1894C39.5501 15.4057 38.5605 16.3954 37.3441 16.3954H19.7751V9.71606H37.3441C38.5605 9.71606 39.5501 10.7057 39.5501 11.9219Z" fill="#0487F3"/>
<path d="M36.3316 30.1939V34.5046C36.3316 35.1586 35.8017 35.6893 35.1469 35.6893H19.7751V29.0092H35.1469C35.8017 29.0092 36.3316 29.5399 36.3316 30.1939Z" fill="#0487F3"/>
<path d="M39.5501 34.5046V38.8153C39.5501 39.4693 39.0201 40 38.3654 40H19.7751V33.3199H38.3654C39.0201 33.3199 39.5501 33.8499 39.5501 34.5046Z" fill="#0073DF"/>
</svg>
