<svg width="37" height="40" viewBox="0 0 37 40" fill="none" xmlns="http://www.w3.org/2000/svg">
<path d="M34.8516 10.1389H1.65619C0.741478 10.1389 0 10.8804 0 11.7951V28.205C0 29.1197 0.741478 29.8612 1.65619 29.8612H34.8515C35.7662 29.8612 36.5077 29.1197 36.5077 28.205V11.7951C36.5078 10.8804 35.7662 10.1389 34.8516 10.1389Z" fill="#00C853"/>
<path d="M34.8516 10.1389V26.5488C34.8516 27.4635 34.1102 28.205 33.1954 28.205H0C0 29.1197 0.741478 29.8612 1.65619 29.8612H34.8515C35.7662 29.8612 36.5077 29.1197 36.5077 28.205V11.7951C36.5078 10.8804 35.7662 10.1389 34.8516 10.1389Z" fill="#00C853"/>
<path d="M35.5322 10.2863C35.6261 10.4941 35.6796 10.724 35.6796 10.967V27.3769C35.6796 28.2916 34.9381 29.0331 34.0234 29.0331H0.828157C0.585359 29.0331 0.355313 28.9796 0.147461 28.8855C0.407318 29.4604 0.984336 29.8612 1.65625 29.8612H34.8515C35.7662 29.8612 36.5077 29.1197 36.5077 28.205V11.7951C36.5079 11.1233 36.1071 10.5461 35.5322 10.2863Z" fill="#00C853"/>
<path d="M6.7668 12.5347C6.30969 14.7245 4.58576 16.4483 2.39611 16.9052C2.24523 16.9367 2.13989 17.0738 2.13989 17.2279V22.7718C2.13989 22.9258 2.24539 23.063 2.39611 23.0944C4.58576 23.5514 6.30969 25.2755 6.7668 27.4651C6.79827 27.6159 6.9354 27.7214 7.08943 27.7214H29.4187C29.5728 27.7214 29.7099 27.6159 29.7414 27.4651C30.1983 25.2753 31.9224 23.5514 34.1119 23.0944C34.2628 23.063 34.3681 22.9258 34.3681 22.7718V17.2279C34.3681 17.0738 34.2626 16.9367 34.1119 16.9052C31.9224 16.4483 30.1983 14.7245 29.7414 12.5347C29.7099 12.3838 29.5728 12.2785 29.4187 12.2785H7.08943C6.9354 12.2785 6.79827 12.384 6.7668 12.5347Z" fill="#00A745"/>
<path d="M18.2539 26.6248C21.9127 26.6248 24.8787 23.6588 24.8787 20C24.8787 16.3413 21.9127 13.3752 18.2539 13.3752C14.5952 13.3752 11.6292 16.3413 11.6292 20C11.6292 23.6588 14.5952 26.6248 18.2539 26.6248Z" fill="#00C853"/>
<path d="M18.2537 24.9486C20.9867 24.9486 23.2023 22.7331 23.2023 20.0001C23.2023 17.2671 20.9867 15.0515 18.2537 15.0515C15.5207 15.0515 13.3052 17.2671 13.3052 20.0001C13.3052 22.7331 15.5207 24.9486 18.2537 24.9486Z" fill="#5CDC91"/>
<path d="M18.7534 19.419H18.585V17.5836H18.7534C19.2594 17.5836 19.671 17.9952 19.671 18.5013C19.671 18.6842 19.8194 18.8326 20.0022 18.8326C20.1851 18.8326 20.3335 18.6842 20.3335 18.5013C20.3335 17.63 19.6248 16.9212 18.7534 16.9212H18.585V16.7527C18.585 16.5699 18.4366 16.4215 18.2538 16.4215C18.0709 16.4215 17.9225 16.5699 17.9225 16.7527V16.9212H17.7541C16.8828 16.9212 16.1741 17.63 16.1741 18.5013C16.1741 19.3727 16.8828 20.0815 17.7541 20.0815H17.9225V22.4164H17.7541C17.2481 22.4164 16.8366 22.0048 16.8366 21.4987C16.8366 21.3159 16.6882 21.1675 16.5053 21.1675C16.3225 21.1675 16.1741 21.3159 16.1741 21.4987C16.1741 22.37 16.8828 23.0789 17.7541 23.0789H17.9225V23.2473C17.9225 23.4302 18.0709 23.5786 18.2538 23.5786C18.4366 23.5786 18.585 23.4302 18.585 23.2473V23.0789H18.7534C19.6248 23.0789 20.3335 22.37 20.3335 21.4987V20.999C20.3335 20.1277 19.6246 19.419 18.7534 19.419ZM17.7541 19.419C17.2481 19.419 16.8366 19.0075 16.8366 18.5013C16.8366 17.9952 17.2481 17.5836 17.7541 17.5836H17.9225V19.419H17.7541ZM19.671 21.4987C19.671 22.0048 19.2594 22.4164 18.7534 22.4164H18.585V20.0815H18.7534C19.2594 20.0815 19.671 20.4931 19.671 20.999V21.4987Z" fill="white"/>
<path d="M20.7633 0.829584V1.86885H9.98728C9.53 1.86885 9.15918 2.23967 9.15918 2.69694V6.00089C9.15918 6.45816 9.53 6.82898 9.98728 6.82898H20.7633V7.86825C20.7633 8.54182 21.5245 8.93351 22.0727 8.54215L27.0013 5.02274C27.4639 4.69249 27.4639 4.00517 27.0013 3.67493L22.0727 0.155513C21.5246 -0.235681 20.7633 0.156175 20.7633 0.829584Z" fill="#D50000"/>
<path d="M27.0015 3.67506L26.4929 3.31186C26.5745 3.62786 26.4687 3.98394 26.1734 4.19478L21.2447 7.71419C21.0937 7.82201 20.9266 7.86855 20.7634 7.86789V7.86822C20.7634 8.54179 21.5246 8.93348 22.0728 8.54212L27.0015 5.02271C27.4639 4.69263 27.4639 4.00531 27.0015 3.67506Z" fill="#C10000"/>
<path d="M15.7442 32.1316V33.1709H26.5202C26.9775 33.1709 27.3483 33.5417 27.3483 33.999V37.303C27.3483 37.7602 26.9775 38.1311 26.5202 38.1311H15.7442V39.1703C15.7442 39.8439 14.983 40.2356 14.4348 39.8442L9.50611 36.3248C9.04354 35.9946 9.04354 35.3072 9.50611 34.977L14.4348 31.4576C14.9828 31.0664 15.7442 31.4582 15.7442 32.1316Z" fill="#0487F3"/>
<path d="M26.5204 33.1711V36.475C26.5204 36.9323 26.1496 37.3031 25.6923 37.3031H15.7444C15.2871 37.3031 14.9163 37.6739 14.9163 38.1312V38.3424C14.9163 39.016 14.1551 39.4076 13.6069 39.0163L9.18701 35.8601C9.23339 36.0391 9.33922 36.2056 9.50649 36.325L14.4352 39.8444C14.9832 40.2357 15.7445 39.8439 15.7445 39.1705V38.1312H26.5206C26.9778 38.1312 27.3487 37.7604 27.3487 37.3031V33.9992C27.3485 33.5417 26.9778 33.1711 26.5204 33.1711Z" fill="#0073DF"/>
</svg>
