<svg width="40" height="40" viewBox="0 0 40 40" fill="none" xmlns="http://www.w3.org/2000/svg">
<path d="M39.9991 17.3493C40.0498 14.4547 37.9784 12.1695 34.8526 12.2317C30.973 12.3087 27.0919 12.2514 23.2107 12.2481C22.9393 12.2481 22.668 12.2235 22.3966 12.2088C22.3671 12.1318 22.3377 12.0532 22.3083 11.9762C22.5437 11.7894 22.7987 11.624 23.008 11.4143C25.8151 8.61143 28.6156 5.80528 31.4112 2.99094C31.676 2.72392 31.949 2.43724 32.1158 2.10634C32.6128 1.12345 31.882 -0.0838685 30.7883 0.0045916C30.306 0.0439072 29.7567 0.345327 29.4003 0.694252C26.4559 3.58886 23.5475 6.51951 20.6407 9.4518C20.438 9.65657 20.3448 9.96945 20.1617 10.2987C19.0124 9.13236 18.1198 8.22155 17.2222 7.31729C16.4571 6.54736 15.6985 5.7676 14.9073 5.02388C14.443 4.58813 13.8283 4.34405 13.2741 4.73065C12.8702 5.01078 12.4092 5.51696 12.3798 5.94943C12.3487 6.43105 12.6675 7.05027 13.0256 7.42704C14.5214 8.99967 16.0876 10.5051 17.6293 12.0352C17.6032 12.1072 17.5754 12.1793 17.5492 12.2498H16.686C12.8065 12.2498 8.92533 12.2465 5.0458 12.2514C1.91668 12.2579 0.0104392 14.1467 0.00553457 17.2674C-0.00263972 23.168 -0.00100486 29.0686 0.00553457 34.9676C0.00880429 38.1243 1.86764 39.9934 5.01147 39.9951C14.9972 40.0016 24.9829 40.0016 34.9686 39.9951C38.1174 39.9934 39.9648 38.126 39.9664 34.9676C39.9697 29.0948 39.8961 23.2204 39.9991 17.3493ZM28.5796 32.9756C28.1742 34.8267 26.9562 36.0029 25.1219 36.3535C23.5867 36.6467 22.0091 36.8433 20.4478 36.8531C16.6533 36.876 12.8572 36.7712 9.06265 36.6991C8.60653 36.6909 8.14877 36.5845 7.69591 36.4993C5.43327 36.075 3.96026 34.7809 3.56462 32.4776C2.84365 28.2692 2.79133 24.0297 3.57607 19.8344C4.08451 17.1151 5.6131 15.9045 8.5444 15.6473C11.1079 15.4212 13.6844 15.3622 16.7122 15.2066C19.0516 15.3737 21.8423 15.4851 24.6118 15.7947C26.9219 16.0519 28.3573 17.4738 28.73 19.7803C29.4444 24.1804 29.5409 28.5936 28.5796 32.9756ZM34.6237 30.8427C33.2618 30.8509 32.1992 29.7878 32.2106 28.4248C32.2237 27.1012 33.27 26.0561 34.5893 26.0512C35.9397 26.0462 37.0302 27.1356 37.0155 28.4707C37.0008 29.7796 35.9381 30.8346 34.6237 30.8427ZM34.5893 24.6718C33.2537 24.6653 32.2253 23.6431 32.2123 22.3047C32.1975 20.9565 33.2847 19.859 34.622 19.8704C35.9152 19.8803 37.0008 20.9614 37.0171 22.2556C37.0335 23.5907 35.9397 24.68 34.5893 24.6718Z" fill="#0073DF"/>
<path d="M7.95424 17.2576V34.9561C6.44199 34.4499 5.46108 33.3737 5.1668 31.6569C4.848 29.796 4.67798 27.9268 4.67798 26.061C4.67798 24.2443 4.83819 22.4292 5.17661 20.624C5.5183 18.7892 6.39295 17.7425 7.95424 17.2576Z" fill="#E0E4E9"/>
<path d="M11.2304 16.843V35.3656C10.8069 35.3574 10.3851 35.3492 9.96334 35.341C9.56607 35.3344 9.16717 35.2411 8.77153 35.1674C8.4838 35.1133 8.21077 35.0429 7.9541 34.956V17.2575C8.41186 17.115 8.93011 17.0199 9.51212 16.9692C10.0827 16.9184 10.6533 16.8791 11.2304 16.843Z" fill="#FFD600"/>
<path d="M14.5067 16.6843V35.4313C13.4146 35.4116 12.3226 35.3887 11.2305 35.3658V16.8432C12.2866 16.7793 13.3656 16.7335 14.5067 16.6843Z" fill="#5EB2F7"/>
<path d="M17.7831 16.6596V35.4754C16.691 35.4672 15.5989 35.4508 14.5068 35.4311V16.6842C15.1918 16.6547 15.9014 16.6235 16.6403 16.5842C17.0098 16.6104 17.3907 16.635 17.7831 16.6596Z" fill="#00C853"/>
<path d="M21.0595 16.8726V35.4312C20.672 35.4574 20.2862 35.4738 19.9003 35.4754C19.1941 35.4804 18.4895 35.4787 17.7832 35.4754V16.6597C18.8181 16.7252 19.9249 16.7874 21.0595 16.8726Z" fill="#D61E98"/>
<path d="M24.3356 17.251V34.9577C24.2195 34.9888 24.1018 35.0167 23.9792 35.0396C23.0195 35.2231 22.0386 35.3623 21.0593 35.4311V16.8726C21.8751 16.9332 22.7056 17.0052 23.5345 17.097C23.8173 17.1281 24.0838 17.1805 24.3356 17.251Z" fill="#D50000"/>
<path d="M27.6098 26.2493C27.6098 28.2004 27.4235 30.1498 26.9968 32.091C26.6698 33.585 25.7363 34.5744 24.3352 34.9577V17.251C25.8834 17.6851 26.848 18.8449 27.1275 20.5764C27.4349 22.4668 27.6098 24.3589 27.6098 26.2493Z" fill="#0487F3"/>
</svg>
