<svg width="40" height="40" viewBox="0 0 40 40" fill="none" xmlns="http://www.w3.org/2000/svg">
<path d="M37.0315 0C37.1717 0.1465 37.3697 0.0940107 37.538 0.137099C38.9902 0.509225 39.9969 1.76584 39.9977 3.26688C40.0008 11.7169 40.0008 20.1669 39.9977 28.6169C39.9977 30.4869 38.5604 31.8743 36.5978 31.8814C32.9811 31.8947 29.3644 31.8861 25.7477 31.8884C25.5856 31.8884 25.3563 31.8101 25.3805 32.1172C25.2545 32.1297 25.2075 32.0028 25.1089 31.9605C24.9586 31.8939 24.8004 31.9206 24.6462 31.9206C23.27 31.9206 21.8937 31.9206 20.5175 31.9206C20.3382 31.9206 20.1511 31.9503 19.9899 31.8328C19.9119 31.7267 19.8751 31.5958 19.8865 31.4646C19.8975 30.8293 19.8325 30.1915 19.9265 29.5578C19.9447 29.5088 19.9748 29.4652 20.0141 29.4308C20.2036 29.3188 20.4142 29.3423 20.6185 29.3423C22.0527 29.3423 23.486 29.3321 24.9241 29.3478C26.3238 29.3533 27.7243 29.3047 29.1248 29.3729C29.874 29.4747 30.6271 29.4136 31.3779 29.4175C32.0378 29.4175 32.7009 29.4708 33.3577 29.3596C34.3464 29.3266 35.3351 29.3525 36.3238 29.3423C37.0675 29.3345 37.4762 28.9467 37.5286 28.2017C37.5412 28.0332 37.5365 27.8632 37.5365 27.694C37.5365 23.9179 37.5365 20.1418 37.5365 16.3657C37.5365 16.2223 37.5365 16.079 37.5451 15.9356C37.5208 14.1024 37.538 12.2692 37.5357 10.436C37.532 8.3035 37.532 6.17102 37.5357 4.03855C37.5412 3.75264 37.5231 3.46676 37.4817 3.18383C37.4989 2.92608 37.3862 2.75843 37.1356 2.68558C36.8029 2.53594 36.4499 2.54848 36.0992 2.54848C30.9757 2.54848 25.852 2.54848 20.7281 2.54848C20.4854 2.54848 20.231 2.59392 20.0079 2.44115C19.9366 2.3634 19.8974 2.26149 19.8983 2.15598C19.8756 1.55823 19.8771 0.960477 19.8983 0.362725C19.8966 0.310314 19.9057 0.258124 19.925 0.209354C19.9442 0.160585 19.9732 0.116266 20.0102 0.0791265C20.159 0.00626815 20.3171 0.0438763 20.4705 0.0438763C25.7359 0.0438763 31.001 0.0438763 36.2659 0.0438763C36.4225 0.0438763 36.579 0.0838268 36.7254 0.00548453L37.0315 0Z" fill="#5EB2F7"/>
<path d="M20.0039 0.0947959L20.018 2.40276L19.9687 2.4623C19.7385 2.59 19.4857 2.54691 19.2422 2.54691C14.1715 2.54691 9.1013 2.54691 4.03163 2.54691C3.84923 2.54691 3.66761 2.54064 3.48364 2.55318C2.92782 2.59313 2.57085 2.92765 2.49648 3.4784C2.47692 3.67282 2.47064 3.86834 2.47769 4.06362V15.4609C2.47769 15.6175 2.48239 15.7742 2.46751 15.9309C2.4863 18.8053 2.46751 21.6804 2.47534 24.5556C2.47534 25.726 2.46986 26.8973 2.47534 28.0677C2.4816 28.9906 2.88712 29.3995 3.81244 29.4183C4.81291 29.4355 5.81416 29.4081 6.81463 29.434C9.54126 29.4528 12.2679 29.3979 14.9945 29.4238C16.4558 29.4175 17.9171 29.4175 19.3784 29.4238C19.582 29.4238 19.7957 29.3893 19.9789 29.5249L19.9992 31.8148C19.9992 31.8399 20.0078 31.8649 20.0117 31.8931C19.9779 31.9316 19.9352 31.9612 19.8873 31.9793C19.6712 32.0404 19.4504 32.0193 19.2313 32.0201C17.8858 32.0201 16.5404 32.0201 15.1949 32.0201C14.9898 32.0201 14.7769 32.0428 14.6008 31.8971C14.4442 31.8908 14.2876 31.8783 14.131 31.8783H3.95961C1.80993 31.8783 0.671681 31.0298 0.0532373 28.9796C0.0469746 28.9584 0.0187882 28.9443 0 28.9271V2.96996C0.168311 1.62482 0.973858 0.783424 2.14812 0.22171C2.48709 0.0595415 2.85267 0.0885268 3.2026 0H3.28089C3.42806 0.0783423 3.58698 0.0376083 3.74041 0.0383917C9.11331 0.0383917 14.4857 0.0383917 19.8575 0.0383917C19.8848 0.0333928 19.9128 0.0360128 19.9387 0.0459658C19.9645 0.0559189 19.9871 0.072816 20.0039 0.0947959Z" fill="#0487F3"/>
<path d="M14.6086 31.8923H20.0024C20.1503 32.0373 20.1292 32.2276 20.1292 32.4063C20.1328 33.9658 20.1328 35.5253 20.1292 37.0849C20.1292 37.2533 20.1354 37.4241 20.0509 37.58C20.0191 37.6218 19.977 37.6547 19.9288 37.6756C19.7789 37.7191 19.6225 37.7356 19.4669 37.7241C17.7541 37.7241 16.0412 37.7241 14.3291 37.7202C14.1217 37.7202 13.8774 37.7845 13.7412 37.5361L14.4974 32.5833C14.535 32.3522 14.571 32.1227 14.6086 31.8923Z" fill="#5EB2F7"/>
<path d="M20.0149 37.5917C20.0112 35.6911 20.0076 33.7902 20.0039 31.8891V31.8829C20.4032 31.8186 20.8047 31.8578 21.2048 31.8555C22.4487 31.8492 23.6927 31.8555 24.9374 31.8555C25.0626 31.8555 25.1965 31.8124 25.3131 31.9009C25.3233 31.9792 25.3131 32.0576 25.3844 32.1171C25.6161 33.7331 25.8475 35.3495 26.0787 36.9665C26.1007 37.1232 26.1061 37.2799 26.1195 37.4366C26.1664 37.6771 25.9903 37.688 25.8345 37.7029C25.627 37.7225 25.4188 37.7115 25.2082 37.7115C23.6621 37.7115 22.1152 37.7115 20.5683 37.7115C20.3781 37.7045 20.1714 37.7531 20.0149 37.5917Z" fill="#0487F3"/>
<path d="M26.1759 37.5964C27.1889 37.5964 28.2019 37.5964 29.2149 37.6082C29.5103 37.602 29.7979 37.703 30.0247 37.8925C30.2514 38.082 30.402 38.3472 30.4487 38.6392C30.5387 39.1202 30.2138 39.6937 29.7167 39.8864C29.5487 39.9539 29.37 39.9908 29.1891 39.9953C26.1751 40.0015 23.1615 40.0015 20.148 39.9953C20.0979 39.9886 20.0489 39.9751 20.0024 39.9553C19.9239 39.8509 19.8823 39.7233 19.8842 39.5926C19.8764 39.0607 19.874 38.5295 19.8842 37.9983C19.8779 37.8804 19.9137 37.764 19.9852 37.6701C20.1214 37.6051 20.267 37.6372 20.4079 37.6372C22.1756 37.634 23.9435 37.634 25.7117 37.6372C25.8683 37.6372 26.0256 37.6568 26.1759 37.5964Z" fill="#5EB2F7"/>
<path d="M20.007 37.6756L20.0023 39.9577C16.9346 39.9609 13.8667 39.9627 10.7985 39.9632C10.0939 39.9632 9.57957 39.4712 9.56783 38.8186C9.55609 38.1661 10.0571 37.6513 10.7632 37.6302C11.6243 37.6043 12.4792 37.6239 13.3372 37.62C13.4758 37.62 13.6269 37.6615 13.7404 37.5354C13.8774 37.6459 14.0402 37.6012 14.1921 37.602C16.1032 37.6051 18.0141 37.6051 19.9248 37.602C19.9592 37.6173 19.988 37.6431 20.007 37.6756Z" fill="#0487F3"/>
<path d="M20.007 37.6755L19.9248 37.605L20.0133 37.5917C21.9338 37.5917 23.8547 37.5932 25.7758 37.5964C25.9127 37.5964 26.0732 37.6347 26.1155 37.4326L26.1758 37.5964C26.0482 37.7327 25.8814 37.6747 25.7335 37.6747C23.8249 37.6778 21.9161 37.6781 20.007 37.6755Z" fill="#1E61CB"/>
<path d="M6.82178 29.5101C5.71641 29.5148 4.61104 29.5398 3.50646 29.5179C3.35546 29.519 3.20575 29.4901 3.06603 29.4328C2.92632 29.3755 2.7994 29.2909 2.69266 29.184C2.58593 29.0771 2.50151 28.9501 2.44433 28.8102C2.38715 28.6703 2.35834 28.5205 2.35959 28.3694C2.35542 24.2287 2.35803 20.0886 2.36742 15.949C2.53808 15.7868 2.75415 15.8213 2.95768 15.8213C4.26503 15.8213 5.57237 15.8119 6.87893 15.826C8.23324 15.8182 9.58756 15.8096 10.9411 15.826C12.2938 15.808 13.6458 15.8151 14.9986 15.8205C16.4452 15.8153 17.8919 15.8153 19.3386 15.8205C19.5445 15.8205 19.7535 15.8002 19.9524 15.8793C19.9995 15.9025 20.0385 15.9393 20.0643 15.9851C20.1473 16.1699 20.1316 16.3674 20.1316 16.5617C20.1316 20.6511 20.1316 24.7403 20.1316 28.8293C20.1316 29.0471 20.1684 29.2766 20.0095 29.4662C20.0001 29.4716 19.9928 29.48 19.9888 29.4901C19.9848 29.5003 19.9844 29.5114 19.9876 29.5218L15.0244 29.5077C15.8973 27.7286 14.6972 25.647 12.6125 25.5906C12.0692 25.5757 11.5243 25.5749 10.981 25.5992C10.3915 25.7261 9.78953 25.6924 9.20084 25.6533C7.71344 25.5553 6.24953 26.9373 6.53918 28.9115C6.56658 29.1003 6.68244 29.2406 6.79125 29.3855C6.81576 29.4221 6.82658 29.4662 6.82178 29.5101Z" fill="#FEFEFE"/>
<path d="M20.0086 29.4669C20.0086 25.0108 20.007 20.5549 20.0039 16.0993C20.0063 16.0469 20.0115 15.9946 20.0196 15.9427C20.1918 15.782 20.411 15.8189 20.6106 15.8189C22.098 15.8189 23.5854 15.8087 25.0728 15.8236C26.4271 15.8157 27.7814 15.8071 29.1357 15.8236C30.4901 15.8056 31.8444 15.811 33.1987 15.8189C34.482 15.811 35.7654 15.811 37.0487 15.8189C37.2514 15.8189 37.4683 15.7844 37.6374 15.9505C37.6421 16.3422 37.6523 16.7339 37.6523 17.1201C37.6523 20.7625 37.6523 24.4047 37.6523 28.0465C37.6523 29.0258 37.206 29.4763 36.233 29.4755C35.2599 29.4747 34.3095 29.4684 33.3482 29.4653C33.4883 28.9953 33.6089 28.5307 33.5173 28.0199C33.2652 26.6097 32.4996 25.7715 31.0795 25.6352C29.827 25.5145 28.5603 25.5513 27.3008 25.6242C26.6941 25.672 26.1359 25.8388 25.6662 26.2509C24.8833 26.9349 24.6728 27.8178 24.7197 28.8104C24.7315 29.0532 24.9444 29.2193 24.9342 29.463L20.0086 29.4669Z" fill="#00215A"/>
<path d="M37.6404 15.9529L33.1962 15.9365C33.7317 15.2314 33.608 14.466 33.3528 13.7162C33.0107 12.6978 32.029 12.0178 30.9354 11.9927C30.3388 11.9778 29.7407 11.9927 29.1434 11.9927C28.5955 11.9927 28.0522 11.9849 27.5065 11.9927C25.7396 12.0217 24.6429 13.3245 24.7188 15.0598C24.7337 15.4116 24.9764 15.6434 25.0922 15.9388L20.0171 15.9482L19.9905 15.9521C19.866 15.7954 19.8762 15.6105 19.8762 15.4296C19.8762 11.268 19.8762 7.10649 19.8762 2.94495C19.8762 2.76398 19.866 2.57752 19.9991 2.42632L20.0147 2.40674C20.1713 2.41144 20.3279 2.42162 20.4844 2.42162H36.333C36.6673 2.42162 37.0039 2.41222 37.2725 2.65665C37.3492 2.70053 37.4154 2.76063 37.4665 2.83274C37.5176 2.90486 37.5523 2.98727 37.5684 3.07421C37.66 3.38758 37.6537 3.71427 37.6537 4.03939C37.6537 7.85466 37.6537 11.6694 37.6537 15.4836C37.6553 15.6411 37.6451 15.797 37.6404 15.9529Z" fill="#FE405C"/>
<path d="M27.2952 25.5373C28.6033 25.5067 29.9192 25.3806 31.2172 25.5498C32.7523 25.7464 33.644 26.8667 33.6589 28.4234C33.6636 28.8049 33.6628 29.1802 33.3536 29.4677C33.0764 29.5554 32.7907 29.5296 32.5073 29.5304C31.523 29.5304 30.5393 29.5304 29.556 29.5304C29.4167 29.5304 29.2703 29.5672 29.1395 29.4818C29.008 29.3141 29.0229 29.1152 29.0221 28.9209C29.0221 28.1656 29.0221 27.4112 29.0221 26.656C29.0151 25.5592 29.1309 25.6971 28.0725 25.6853C27.9293 25.6853 27.786 25.69 27.6435 25.6783C27.512 25.6657 27.3735 25.6642 27.2952 25.5373Z" fill="#00EBCD"/>
<path d="M27.2953 25.5374C27.7861 25.5428 28.2777 25.5632 28.7686 25.5483C29.0441 25.5397 29.16 25.6008 29.1514 25.9079C29.1326 27.0987 29.1412 28.2895 29.1397 29.4803L24.9397 29.467C24.4199 28.8896 24.6023 28.2135 24.7401 27.5868C25.0031 26.3811 26.0239 25.6 27.2953 25.5374Z" fill="#7AFEE3"/>
<path d="M25.3092 31.901L20 31.883C20.0008 31.8593 20.0031 31.8358 20.007 31.8125C21.6421 31.8125 23.2777 31.8125 24.9139 31.8125C25.047 31.8164 25.2035 31.7537 25.3092 31.901Z" fill="#1E62CE"/>
<path d="M37.5716 3.07577L37.2756 2.6582C37.5183 2.69502 37.5943 2.85014 37.5716 3.07577Z" fill="#0F82F2"/>
<path d="M20.0022 2.42306C20.0022 6.84104 20.0022 11.2588 20.0022 15.6762C20.0022 15.7671 19.9959 15.858 19.9928 15.9489L14.9826 15.9285C15.2401 15.525 15.3106 15.0894 15.3004 14.6108C15.292 13.9217 15.0161 13.263 14.531 12.7739C14.046 12.2849 13.3898 12.0038 12.7014 11.9902C12.1182 11.9792 11.535 11.9902 10.9517 11.9902C10.356 11.9902 9.76026 11.9769 9.16452 11.9902C7.50411 12.0349 6.28367 13.3863 6.542 15.3096C6.57723 15.5759 6.85514 15.6856 6.90133 15.9363L2.36946 15.9473C2.36529 14.1501 2.36111 12.3527 2.35693 10.555C2.35693 8.27575 2.35693 5.99625 2.35693 3.71649C2.35693 2.86491 2.80786 2.40191 3.6455 2.40112C9.00795 2.40112 14.3704 2.40112 19.7329 2.40112C19.8213 2.40269 19.9113 2.41601 20.0022 2.42306Z" fill="#CBEDFE"/>
<path d="M6.82159 29.5099L6.81689 29.4739C6.97346 29.3172 7.17778 29.3469 7.36488 29.3462C8.35283 29.3407 9.33999 29.3462 10.3279 29.3422C10.7835 29.3422 10.8141 29.3093 10.8164 28.8542C10.8211 27.9305 10.8164 27.0076 10.8164 26.084C10.8164 25.8905 10.8 25.6923 10.9409 25.527C11.6924 25.4831 12.4455 25.4486 13.1931 25.5646C14.3893 25.755 15.3647 26.8862 15.3906 28.0966C15.396 28.3316 15.3906 28.5667 15.3976 28.8017C15.4101 29.1151 15.2982 29.3579 15.0171 29.5115C13.2033 29.5185 11.3887 29.5287 9.57484 29.531C8.66361 29.5287 7.74142 29.5162 6.82159 29.5099Z" fill="#FE641A"/>
<path d="M6.8993 15.938C6.33096 15.663 6.4116 15.1443 6.41708 14.6539C6.4296 13.4913 7.07623 12.5254 8.12758 12.0937C8.42724 11.9674 8.74817 11.8994 9.07325 11.8931C9.69952 11.8861 10.3195 11.8931 10.9427 11.8971C11.0883 12.0412 11.0687 12.2292 11.0695 12.4071C11.0742 13.4145 11.0742 14.422 11.0695 15.4295C11.0695 15.6089 11.0781 15.7946 10.9395 15.9403L6.8993 15.938Z" fill="#FE405C"/>
<path d="M10.9402 15.9401V11.8969C11.7285 11.8969 12.5223 11.7958 13.3028 11.9635C14.499 12.2197 15.3711 13.3031 15.3961 14.5323C15.3961 14.7008 15.3844 14.8716 15.4032 15.0384C15.447 15.4301 15.299 15.7169 14.9781 15.9284C13.6339 15.9824 12.2867 15.9613 10.9402 15.9401Z" fill="#C0126B"/>
<path d="M10.9473 25.5271C10.9473 26.7101 10.9356 27.8938 10.9473 29.0768C10.9473 29.38 10.869 29.4802 10.5559 29.4763C9.30883 29.4599 8.06176 29.4724 6.81469 29.4763C6.71272 29.4493 6.62169 29.3912 6.55421 29.31C6.48674 29.2289 6.44617 29.1288 6.43814 29.0235C6.22443 27.3838 6.91568 25.987 8.57373 25.5929C9.23132 25.4362 9.92022 25.549 10.5942 25.5326C10.7132 25.5271 10.8307 25.5279 10.9473 25.5271Z" fill="#FE9000"/>
<path d="M10.9473 25.0884C10.5867 25.0957 10.2283 25.0301 9.89363 24.8955C9.55896 24.7609 9.25488 24.5601 8.99962 24.3051C8.74436 24.0501 8.54317 23.7461 8.4081 23.4115C8.27304 23.0768 8.20689 22.7182 8.2136 22.3574C8.2188 22.0034 8.29372 21.6539 8.43407 21.3289C8.57442 21.004 8.77745 20.7099 9.03152 20.4636C9.28559 20.2173 9.58572 20.0235 9.91473 19.8934C10.2437 19.7633 10.5951 19.6995 10.9488 19.7055C11.0851 19.8543 11.0702 20.0416 11.071 20.221C11.0741 21.6719 11.0741 23.123 11.071 24.5744C11.0702 24.7531 11.0819 24.9387 10.9473 25.0884Z" fill="#FECB98"/>
<path d="M10.947 25.0884C10.947 23.2938 10.947 21.499 10.947 19.7039C12.4141 19.6812 13.604 20.8791 13.6087 22.3785C13.6204 23.907 12.4477 25.0986 10.947 25.0884Z" fill="#FEB266"/>
<path d="M25.0949 15.9356C24.6181 15.6669 24.6174 15.2125 24.6252 14.7479C24.6432 13.4271 25.39 12.3812 26.5917 12.0162C26.8891 11.9247 27.1989 11.8801 27.5099 11.8838C28.0579 11.8916 28.5997 11.8932 29.1437 11.8971C29.2792 12.0303 29.2666 12.2042 29.2674 12.3671C29.2726 13.3997 29.2726 14.4322 29.2674 15.4648C29.2674 15.6316 29.2674 15.8032 29.1492 15.9411L25.0949 15.9356Z" fill="#FED92D"/>
<path d="M29.1493 15.9449C29.1493 14.5959 29.1472 13.2471 29.1431 11.8985C29.9189 11.8985 30.7001 11.7967 31.4681 11.9573C33.0596 12.2895 33.8378 13.7741 33.6295 15.326C33.5919 15.6041 33.4197 15.7898 33.1966 15.9379C31.8478 15.9857 30.4982 15.9755 29.1493 15.9449Z" fill="#FCBE00"/>
<path d="M29.1429 19.7055C30.6045 19.649 31.868 20.8963 31.868 22.3949C31.868 23.8936 30.6155 25.1267 29.1429 25.0821C29.0052 24.934 29.0185 24.7476 29.0185 24.5674C29.0153 23.118 29.0153 21.6687 29.0185 20.2194C29.0177 20.0423 29.0028 19.8551 29.1429 19.7055Z" fill="#FE9833"/>
<path d="M29.1428 19.7054V25.0821C27.6695 25.1134 26.4334 23.8881 26.4326 22.3941C26.4318 20.9001 27.6734 19.6741 29.1428 19.7054Z" fill="#FEA54D"/>
<path d="M29.1404 6.08869C29.7432 5.99311 30.2747 6.21874 30.7178 6.56579C31.6369 7.28498 32.0557 8.23292 31.7754 9.41354C31.6444 9.94667 31.3569 10.4283 30.9499 10.7965C30.5429 11.1647 30.0351 11.4026 29.4919 11.4794C29.3757 11.4884 29.2589 11.4884 29.1427 11.4794C28.9995 11.3329 29.0191 11.1441 29.0183 10.9655C29.0141 9.51407 29.0141 8.06213 29.0183 6.60966C29.0175 6.42556 29.0175 6.24067 29.1404 6.08869Z" fill="#FE9833"/>
<path d="M29.1404 6.08878V11.4764C27.5309 11.4153 26.4216 10.2542 26.431 8.7344C26.4443 7.1323 27.8166 6.00574 29.1404 6.08878Z" fill="#FEA54D"/>
<path d="M10.9513 11.4795C9.53197 11.4983 8.2896 10.3639 8.21602 8.97257C8.13304 7.46997 9.1836 6.2306 10.6694 6.09663C10.8409 6.08096 11.0162 5.94386 11.1916 6.08723C11.0994 6.31533 11.0572 6.56059 11.0679 6.80641C11.071 8.16434 11.071 9.52228 11.0679 10.8802C11.0671 11.0878 11.1063 11.3009 10.9513 11.4795Z" fill="#FECB98"/>
<path d="M10.9511 11.4796C10.9511 9.79526 10.9477 8.11116 10.9409 6.42733C10.9409 6.24087 10.9503 6.08576 11.1914 6.08967C12.4385 6.18603 13.5 7.2554 13.6088 8.44777C13.7654 10.1368 12.563 11.2078 11.521 11.4138C11.3339 11.4467 11.1499 11.5329 10.9511 11.4796Z" fill="#FEB266"/>
</svg>
