<svg width="48" height="48" viewBox="0 0 48 48" fill="none" xmlns="http://www.w3.org/2000/svg">
<path d="M34 14.0088L33.9806 43L24.4952 36.0627L15 42.9868L15.0194 14L34 14.0088Z" fill="#5C7189"/>
<path d="M28 18V38.7405L24.1763 35.8247L20 39V18H28Z" fill="#5C7189"/>
<path d="M24.0196 31.7281C32.1156 31.7281 38.6788 25.1649 38.6788 17.0689C38.6788 8.97282 32.1156 2.40967 24.0196 2.40967C15.9235 2.40967 9.36035 8.97282 9.36035 17.0689C9.36035 25.1649 15.9235 31.7281 24.0196 31.7281Z" fill="#FFD600"/>
<g opacity="0.05">
<path opacity="0.05" d="M17.8224 25.4735C19.7844 27.4385 22.3726 28.6544 25.1376 28.9103C23.4904 29.0624 21.8296 28.8692 20.2613 28.3432C18.6929 27.8171 17.2516 26.9697 16.0292 25.8551C14.8069 24.7405 13.8306 23.3831 13.1625 21.8698C12.4945 20.3565 12.1494 18.7205 12.1494 17.0663C12.1494 15.4121 12.4945 13.776 13.1625 12.2627C13.8306 10.7494 14.8069 9.39207 16.0292 8.27745C17.2516 7.16282 18.6929 6.31541 20.2613 5.78935C21.8296 5.26329 23.4904 5.07015 25.1376 5.22228C22.8887 5.43084 20.7457 6.27537 18.9592 7.65711C17.1726 9.03885 15.8164 10.9007 15.0491 13.0249C14.2818 15.1491 14.1351 17.4478 14.6262 19.6523C15.1174 21.8568 16.226 23.8759 17.8224 25.4735Z" fill="black"/>
</g>
<path d="M29.5872 25.339L23.8944 22.2574L18.1296 25.1998L19.3008 18.8302L14.7168 14.2558L21.1344 13.4062L24.072 7.63184L26.8656 13.4734L33.2592 14.4814L28.5696 18.9454L29.5872 25.339Z" fill="white"/>
</svg>
