<svg width="40" height="40" viewBox="0 0 40 40" fill="none" xmlns="http://www.w3.org/2000/svg">
<g clip-path="url(#clip0_4212_270)">
<path d="M34.1421 5.85785C30.3646 2.0804 25.3422 0 20 0C14.6578 0 9.63539 2.0804 5.85785 5.85785C2.08032 9.63539 0 14.6578 0 20C0 25.3422 2.0804 30.3646 5.85785 34.1421C9.63539 37.9196 14.6578 40 20 40C25.3422 40 30.3646 37.9196 34.1421 34.1421C37.9197 30.3646 40 25.3422 40 20C40 14.6578 37.9196 9.63539 34.1421 5.85785Z" fill="#87C5F9"/>
<path d="M39.9997 20C39.9997 22.1637 39.6037 24.4377 38.9467 26.4352C37.9815 29.3691 36.3896 31.1076 34.1421 33.3551C30.3646 37.1326 25.342 39.9997 20 39.9997C19.5538 39.9997 19.1099 39.9855 18.6692 39.9564C13.8276 39.6408 9.31978 36.817 5.85783 33.3551C2.08029 29.5775 0.787354 25.342 0.787354 20C0.787354 14.6579 6.34733 5.38091 6.59917 5.1519C6.94025 4.8434 7.54174 4.35374 7.90006 4.07137C11.4092 1.30606 15.4635 0.787354 20 0.787354C25.342 0.787354 39.0527 12.0083 39.655 16.2736C39.7866 17.2059 39.9997 19.0417 39.9997 20Z" fill="#C3E2FC"/>
<path d="M39.655 16.2736C39.0527 12.0083 25.3421 0.787354 20 0.787354V39.9997C25.3421 39.9997 30.3646 37.1326 34.1421 33.3551C36.3896 31.1076 37.9815 29.3691 38.9467 26.4352C39.6038 24.4377 39.9997 22.1637 39.9997 20C39.9997 19.0417 39.7866 17.2059 39.655 16.2736Z" fill="#87C5F9"/>
<path d="M39.6551 16.2736L39.4457 16.5577C38.3494 18.6857 36.6976 20.1345 34.6679 20.7468C33.973 20.9569 33.2514 21.06 32.5281 21.06C31.2375 21.06 29.9429 20.7303 28.7899 20.0865C27.7779 19.5214 27.2435 18.2355 26.7264 16.9913C26.51 16.4711 26.2873 15.9344 26.0669 15.559L25.1761 14.72C24.3025 14.1991 23.1047 14.443 21.8393 14.7012C20.8539 14.9018 19.8348 15.1096 18.8865 14.938C17.6352 14.7122 16.7726 13.9016 16.3225 12.5275C15.5709 10.2374 12.4757 7.61906 10.402 6.123C9.86604 5.73659 8.75481 4.89609 7.90015 4.07132C11.3621 1.42941 15.5717 0.000244141 20.0001 0.000244141C25.3421 0.000244141 30.3647 2.08025 34.1422 5.85778C37.0257 8.7413 38.92 12.3504 39.6551 16.2736Z" fill="#5CDC91"/>
<path d="M34.1421 5.85778C30.3646 2.08025 25.3421 0.000244141 20 0.000244141V14.9897C20.6095 14.9514 21.2308 14.825 21.8392 14.7012C23.1047 14.443 24.3025 14.1991 25.176 14.72L26.0669 15.559C26.2872 15.9344 26.51 16.4711 26.7264 16.9913C27.2434 18.2355 27.7778 19.5214 28.7899 20.0865C29.9428 20.7303 31.2374 21.06 32.528 21.06C33.2513 21.06 33.9729 20.9569 34.6679 20.7468C36.6975 20.1345 38.3494 18.6857 39.4456 16.5577L39.655 16.2736C38.9199 12.3504 37.0257 8.7413 34.1421 5.85778Z" fill="#00C853"/>
<path d="M18.6691 38.4453V39.9563C13.8276 39.6407 9.31974 37.604 5.85778 34.1421C2.08025 30.3645 0.000244141 25.342 0.000244141 19.9999C0.000244141 14.6579 2.08025 9.63532 5.85778 5.85778C6.10018 5.61539 6.34729 5.38087 6.59913 5.15186L6.87614 7.63244C6.88244 7.69146 7.54902 13.564 9.07577 18.6699L11.3958 24.5818C12.7715 25.8504 17.5075 30.6392 18.1851 31.8228C19.4506 34.0343 19.1232 36.507 18.6691 38.4453Z" fill="#5CDC91"/>
<path d="M38.9468 26.4352C37.9749 29.3061 36.3482 31.9363 34.1423 34.1422C30.3647 37.9197 25.3422 39.9997 20.0001 39.9997C19.9183 39.9997 20.4519 39.0357 20.7777 38.4596C20.9075 38.2306 21.0437 38.0063 21.1861 37.7851C21.8354 36.7762 24.1405 32.9357 24.1279 29.2904L24.1247 28.5003L29.5415 26.2448L29.6871 26.2235C30.2955 26.1338 31.328 25.4853 32.2393 24.9124C33.9605 23.8311 35.7406 22.7136 37.276 23.4266C38.159 23.8366 38.7068 24.7503 38.9035 26.1433L38.9153 26.2259C38.9153 26.2259 38.9271 26.2999 38.9468 26.4352Z" fill="#00C853"/>
<path d="M31.031 10.6636C31.031 12.8956 26.9895 16.561 26.9895 16.561C26.9895 16.561 22.948 12.8955 22.948 10.6636C22.948 8.43159 24.7574 6.62207 26.9895 6.62207C29.2215 6.62207 31.031 8.43159 31.031 10.6636Z" fill="#D50000"/>
<path d="M14.0493 21.2029C14.0493 23.4349 10.0078 27.1003 10.0078 27.1003C10.0078 27.1003 5.96631 23.4348 5.96631 21.2029C5.96631 18.9709 7.77575 17.1614 10.0078 17.1614C12.2398 17.1614 14.0493 18.9708 14.0493 21.2029Z" fill="#D50000"/>
<path d="M31.031 26.5918C31.031 28.8238 26.9895 32.4892 26.9895 32.4892C26.9895 32.4892 22.948 28.8238 22.948 26.5918C22.948 24.3597 24.7574 22.5503 26.9895 22.5503C29.2215 22.5503 31.031 24.3597 31.031 26.5918Z" fill="#D50000"/>
<path d="M26.9893 12.1092C27.6413 12.1092 28.1698 11.5807 28.1698 10.9288C28.1698 10.2768 27.6413 9.74829 26.9893 9.74829C26.3374 9.74829 25.8088 10.2768 25.8088 10.9288C25.8088 11.5807 26.3374 12.1092 26.9893 12.1092Z" fill="#FFD600"/>
<path d="M10.0076 22.6486C10.6596 22.6486 11.1881 22.12 11.1881 21.4681C11.1881 20.8161 10.6596 20.2876 10.0076 20.2876C9.35567 20.2876 8.82715 20.8161 8.82715 21.4681C8.82715 22.12 9.35567 22.6486 10.0076 22.6486Z" fill="#FFD600"/>
<path d="M26.9893 28.0375C27.6413 28.0375 28.1698 27.509 28.1698 26.857C28.1698 26.205 27.6413 25.6765 26.9893 25.6765C26.3374 25.6765 25.8088 26.205 25.8088 26.857C25.8088 27.509 26.3374 28.0375 26.9893 28.0375Z" fill="#FFD600"/>
</g>
<defs>
<clipPath id="clip0_4212_270">
<rect width="40" height="40" fill="white"/>
</clipPath>
</defs>
</svg>
