<svg width="40" height="36" viewBox="0 0 40 36" fill="none" xmlns="http://www.w3.org/2000/svg">
<path d="M26.4001 16.8003H39.2002V36.0003H26.4001V16.8003Z" fill="#0073DF"/>
<path d="M32.7999 24.0002H34.3999C34.8418 24.0002 35.2 23.6421 35.2 23.2002V21.6002C35.2 21.1584 34.8418 20.8002 34.3999 20.8002H32.7999C32.3581 20.8002 31.9999 21.1584 31.9999 21.6002V23.2002C31.9999 23.6421 32.3581 24.0002 32.7999 24.0002Z" fill="white"/>
<path d="M32.7999 31.2002H34.3999C34.8418 31.2002 35.2 30.842 35.2 30.4002V28.8002C35.2 28.3584 34.8418 28.0002 34.3999 28.0002H32.7999C32.3581 28.0002 31.9999 28.3584 31.9999 28.8002V30.4002C31.9999 30.842 32.3581 31.2002 32.7999 31.2002Z" fill="white"/>
<path d="M27.2 14.4001H39.2C39.4121 14.4001 39.6156 14.4844 39.7656 14.6345C39.9157 14.7845 40 14.988 40 15.2001V16.8002C40 17.0123 39.9157 17.2158 39.7656 17.3658C39.6156 17.5159 39.4121 17.6002 39.2 17.6002H27.2V14.4001Z" fill="#5C7189"/>
<path d="M0.800049 16.8003H13.6001V36.0003H0.800049V16.8003Z" fill="#0073DF"/>
<path d="M12.8 14.4001H0.800001C0.587828 14.4001 0.384344 14.4844 0.234315 14.6345C0.0842858 14.7845 0 14.988 0 15.2001V16.8002C0 17.0123 0.0842858 17.2158 0.234315 17.3658C0.384344 17.5159 0.587828 17.6002 0.800001 17.6002H12.8V14.4001Z" fill="#5C7189"/>
<path d="M7.20005 20.8H5.60005C5.15822 20.8 4.80005 21.1582 4.80005 21.6001V23.2001C4.80005 23.6419 5.15822 24.0001 5.60005 24.0001H7.20005C7.64188 24.0001 8.00005 23.6419 8.00005 23.2001V21.6001C8.00005 21.1582 7.64188 20.8 7.20005 20.8Z" fill="white"/>
<path d="M7.20005 28H5.60005C5.15822 28 4.80005 28.3582 4.80005 28.8V30.4C4.80005 30.8418 5.15822 31.2 5.60005 31.2H7.20005C7.64188 31.2 8.00005 30.8418 8.00005 30.4V28.8C8.00005 28.3582 7.64188 28 7.20005 28Z" fill="white"/>
<path d="M28 36.0002V8.00016L20 2.40015L12 8.00016V36.0002H28Z" fill="#0487F3"/>
<path d="M20 16.8001C22.2092 16.8001 24 15.0092 24 12.8001C24 10.5909 22.2092 8.80005 20 8.80005C17.7909 8.80005 16 10.5909 16 12.8001C16 15.0092 17.7909 16.8001 20 16.8001Z" fill="white"/>
<path d="M8.37516 7.16484L19.12 0.259229C19.3833 0.0899829 19.6897 0 20.0028 0C20.3158 0 20.6222 0.0899829 20.8856 0.259229L31.628 7.16484C31.81 7.28194 31.9382 7.46652 31.9842 7.67802C32.0303 7.88952 31.9905 8.11065 31.8736 8.29284L30.9936 9.66564C30.9357 9.75598 30.8605 9.834 30.7724 9.89524C30.6843 9.95649 30.585 9.99976 30.4801 10.0226C30.3753 10.0454 30.267 10.0473 30.1614 10.0282C30.0558 10.0091 29.955 9.96935 29.8648 9.91124L20 3.57363L10.1408 9.91124C10.0506 9.96926 9.94995 10.0089 9.84448 10.028C9.739 10.0471 9.6308 10.0453 9.52604 10.0225C9.42129 9.9998 9.32205 9.95665 9.23398 9.89555C9.14591 9.83445 9.07074 9.7566 9.01276 9.66644L8.13276 8.29284C8.01537 8.1111 7.97496 7.89018 8.02041 7.67865C8.06587 7.46712 8.19347 7.28231 8.37516 7.16484Z" fill="#5C7189"/>
<path d="M17.6 20.8H16C15.5581 20.8 15.2 21.1582 15.2 21.6001V23.2001C15.2 23.6419 15.5581 24.0001 16 24.0001H17.6C18.0418 24.0001 18.4 23.6419 18.4 23.2001V21.6001C18.4 21.1582 18.0418 20.8 17.6 20.8Z" fill="white"/>
<path d="M24.0001 20.8H22.4001C21.9583 20.8 21.6001 21.1582 21.6001 21.6001V23.2001C21.6001 23.6419 21.9583 24.0001 22.4001 24.0001H24.0001C24.4419 24.0001 24.8001 23.6419 24.8001 23.2001V21.6001C24.8001 21.1582 24.4419 20.8 24.0001 20.8Z" fill="white"/>
<path d="M16.8 36V28.8C16.8 28.5878 16.8843 28.3843 17.0344 28.2343C17.1844 28.0843 17.3879 28 17.6001 28H22.4001C22.6122 28 22.8157 28.0843 22.9658 28.2343C23.1158 28.3843 23.2001 28.5878 23.2001 28.8V36H16.8Z" fill="white"/>
<path d="M20 13.6001C19.8418 13.6001 19.6872 13.5532 19.5557 13.4653C19.4241 13.3773 19.3216 13.2524 19.2611 13.1063C19.2005 12.9601 19.1847 12.7993 19.2156 12.6441C19.2464 12.4889 19.3226 12.3464 19.4344 12.2345L20.2344 11.4345C20.3853 11.2888 20.5874 11.2082 20.7971 11.21C21.0069 11.2118 21.2076 11.2959 21.3559 11.4443C21.5042 11.5926 21.5883 11.7933 21.5902 12.003C21.592 12.2128 21.5114 12.4149 21.3656 12.5657L20.5656 13.3657C20.4156 13.5158 20.2122 13.6001 20 13.6001Z" fill="#5C7189"/>
</svg>
