<svg width="40" height="39" viewBox="0 0 40 39" fill="none" xmlns="http://www.w3.org/2000/svg">
<path d="M36 7.33334H40V22H36V7.33334Z" fill="#0073DF"/>
<path d="M33.3333 8H35.9999V20H33.3333V8Z" fill="#0487F3"/>
<path d="M33.3333 10H30.6666L25.9999 8H21.3333V20H28.6666L30.6666 18H33.3333V10Z" fill="#FF9F9B"/>
<path d="M18 0L3.3335 7.82208L15.3335 29.8221L30 22L18 0Z" fill="#00A745"/>
<path d="M15.5437 19.1635L10.8799 21.6533L8.35327 17.0267L13.0207 14.5381L15.5437 19.1635Z" fill="#ECC600"/>
<path d="M18 0L8 5.33333L20 27.3333L30 22L18 0Z" fill="#00C853"/>
<path d="M12.7067 2.82666C13.3678 4.06648 13.5124 5.51723 13.1091 6.86317C12.7058 8.20911 11.7873 9.3413 10.5533 10.0133L8 5.33333L12.7067 2.82666Z" fill="#5CDC91"/>
<path d="M17.9999 5.33333C17.0324 5.33517 16.0827 5.07289 15.2533 4.57478C14.4239 4.07666 13.7462 3.36159 13.2932 2.50667L17.9999 0L20.5532 4.67997C19.7707 5.10916 18.8924 5.33389 17.9999 5.33333Z" fill="#5CDC91"/>
<path d="M24.7065 24.8267L19.9999 27.3333L17.4465 22.6533C18.065 22.3151 18.7444 22.103 19.4454 22.0292C20.1465 21.9555 20.8551 22.0216 21.5304 22.2238C22.2057 22.4259 22.8342 22.7601 23.3794 23.2069C23.9246 23.6537 24.3757 24.2042 24.7065 24.8267Z" fill="#5CDC91"/>
<path d="M30.0001 22L25.2934 24.5067C24.6323 23.2668 24.4877 21.8161 24.891 20.4701C25.2942 19.1242 26.2128 17.992 27.4467 17.32L30.0001 22Z" fill="#5CDC91"/>
<path d="M25.54 13.8267L15.5438 19.1635L13.0208 14.5381L23.02 9.20667L25.54 13.8267Z" fill="#FFD600"/>
<path d="M21.3333 13.3333C20.98 13.687 20.7816 14.1665 20.7817 14.6665C20.7819 15.1664 20.9805 15.6458 21.334 15.9993C21.6875 16.3528 22.1669 16.5515 22.6669 16.5516C23.1668 16.5517 23.6463 16.3533 24 16L26.6667 13.3333C27.3739 14.0406 28.3331 14.4379 29.3333 14.4379C30.3335 14.4379 31.2928 14.0406 32 13.3333L33.3333 12V10H30.6667L26 8H22.3636L23.8755 10.7911L21.3333 13.3333Z" fill="#FFDAD2"/>
<path d="M0 26.6667H2.66667V38.6667H0V26.6667Z" fill="#0073DF"/>
<path d="M2.66675 28H5.33341V37.3333H2.66675V28Z" fill="#0487F3"/>
<path d="M13.3333 30L13.9999 30.6667H17.9999C18.5304 30.6667 19.0391 30.8774 19.4141 31.2525C19.7892 31.6275 19.9999 32.1362 19.9999 32.6667C19.9999 33.1971 19.7892 33.7058 19.4141 34.0809C19.0391 34.456 18.5304 34.6667 17.9999 34.6667H28.6666C29.197 34.6667 29.7057 34.8774 30.0808 35.2525C30.4559 35.6275 30.6666 36.1362 30.6666 36.6667C30.6666 37.1971 30.4559 37.7058 30.0808 38.0809C29.7057 38.456 29.197 38.6667 28.6666 38.6667H14.1407C11.006 38.6667 7.94146 37.7388 5.33325 36V30C5.85854 29.4747 6.48215 29.058 7.16847 28.7737C7.85479 28.4895 8.59038 28.3431 9.33325 28.3431C10.0761 28.3431 10.8117 28.4895 11.498 28.7737C12.1844 29.058 12.808 29.4747 13.3333 30Z" fill="#FFDAD2"/>
<path d="M12 35.3333C12 35.5101 12.0702 35.6797 12.1953 35.8047C12.3203 35.9297 12.4899 36 12.6667 36H18C18.1768 36 18.3464 35.9298 18.4714 35.8047C18.5964 35.6797 18.6667 35.5101 18.6667 35.3333C18.6667 35.1565 18.5964 34.9869 18.4714 34.8619C18.3464 34.7369 18.1768 34.6667 18 34.6667H12.6667C12.4899 34.6667 12.3203 34.7369 12.1953 34.8619C12.0702 34.987 12 35.1565 12 35.3333Z" fill="#FF9F9B"/>
</svg>
