<svg width="40" height="40" viewBox="0 0 40 40" fill="none" xmlns="http://www.w3.org/2000/svg">
<path d="M27.5 1.25H3.75C2.36929 1.25 1.25 2.36929 1.25 3.75V36.25C1.25 37.6307 2.36929 38.75 3.75 38.75H27.5C28.8807 38.75 30 37.6307 30 36.25V3.75C30 2.36929 28.8807 1.25 27.5 1.25Z" fill="#5C7189"/>
<path d="M27.5 31.25H3.75V3.75H11.25C11.5815 3.75 11.8995 3.8817 12.1339 4.11612C12.3683 4.35054 12.5 4.66848 12.5 5C12.5 5.16576 12.5658 5.32473 12.6831 5.44194C12.8003 5.55915 12.9592 5.625 13.125 5.625H18.125C18.2908 5.625 18.4497 5.55915 18.5669 5.44194C18.6842 5.32473 18.75 5.16576 18.75 5C18.75 4.66848 18.8817 4.35054 19.1161 4.11612C19.3505 3.8817 19.6685 3.75 20 3.75H27.5V31.25Z" fill="#F2F2F2"/>
<path d="M36.25 10V25.625H28.2769C27.4362 25.6249 26.6037 25.7905 25.8269 26.1122C25.0502 26.4339 24.3445 26.9055 23.75 27.5C23.1555 26.9055 22.4498 26.4339 21.6731 26.1122C20.8963 25.7905 20.0638 25.6249 19.2231 25.625H11.25V10H8.75V28.75H38.75V10H36.25Z" fill="#0073DF"/>
<path d="M23.75 27.5C23.1555 26.9055 22.4498 26.4339 21.6731 26.1122C20.8963 25.7905 20.0638 25.6249 19.2231 25.625H11.25V8.75H19.2231C20.0638 8.74995 20.8963 8.91551 21.6731 9.23722C22.4498 9.55894 23.1555 10.0305 23.75 10.625V27.5Z" fill="#87C5F9"/>
<path d="M23.75 27.5C24.3445 26.9055 25.0502 26.4339 25.8269 26.1122C26.6037 25.7905 27.4362 25.6249 28.2769 25.625H36.25V8.75H28.2769C27.4362 8.74995 26.6037 8.91551 25.8269 9.23722C25.0502 9.55894 24.3445 10.0305 23.75 10.625V27.5Z" fill="#87C5F9"/>
<path d="M15.625 36.25C16.3154 36.25 16.875 35.6904 16.875 35C16.875 34.3096 16.3154 33.75 15.625 33.75C14.9346 33.75 14.375 34.3096 14.375 35C14.375 35.6904 14.9346 36.25 15.625 36.25Z" fill="white"/>
<path d="M15.625 11.875H20.625V13.125H15.625V11.875Z" fill="white"/>
<path d="M13.125 14.375H21.875V15.625H13.125V14.375Z" fill="white"/>
<path d="M13.125 16.875H21.875V18.125H13.125V16.875Z" fill="white"/>
<path d="M13.125 19.375H21.875V20.625H13.125V19.375Z" fill="white"/>
<path d="M25.625 15H34.375V16.25H25.625V15Z" fill="white"/>
<path d="M25.625 17.5H34.375V18.75H25.625V17.5Z" fill="white"/>
<path d="M25.625 20H34.375V21.25H25.625V20Z" fill="white"/>
<path d="M29.375 22.5H34.375V23.75H29.375V22.5Z" fill="white"/>
<path d="M33.75 8.75V13.75L31.875 12.5L30 13.75V8.75" fill="#00C853"/>
<path d="M30 8.75H31.875V11.4975H30V8.75Z" fill="#85E5AC"/>
</svg>
