<svg width="28" height="28" viewBox="0 0 28 28" fill="none" xmlns="http://www.w3.org/2000/svg">
<rect width="28" height="28" rx="6" fill="#002541"/>
<path d="M22.163 5.34932C21.0619 5.43427 18.1093 5.93449 15.2417 8.78955L13.9612 10.07L13.5664 9.99292C13.1915 9.92157 12.8047 9.94317 12.4401 10.0558C12.0734 10.1677 11.7397 10.3675 11.468 10.6379L9.94054 12.1653C9.89707 12.209 9.86564 12.2632 9.84931 12.3226C9.83278 12.3828 9.83278 12.4464 9.84931 12.5066C9.86575 12.5678 9.90029 12.6227 9.94842 12.6639C9.99192 12.7057 10.0465 12.7341 10.1057 12.7457L11.3799 12.9958C11.737 13.0666 12.0653 13.2411 12.3237 13.4976L14.3985 15.5567C14.6568 15.814 14.8322 16.1427 14.9019 16.5006L15.1536 17.7747C15.1657 17.8337 15.194 17.8882 15.2354 17.932C15.2781 17.978 15.3325 18.0117 15.3927 18.0295C15.4529 18.0461 15.5165 18.0461 15.5767 18.0295C15.6363 18.0136 15.6906 17.9821 15.734 17.9383L17.263 16.4109C17.533 16.1404 17.7333 15.8085 17.8466 15.4435C17.9597 15.0795 17.9819 14.6933 17.9111 14.3188L17.8372 13.9271L19.1176 12.6561C21.9711 9.80101 22.5012 6.8846 22.5956 5.7882C22.6004 5.72949 22.5923 5.67045 22.572 5.61517C22.5525 5.55955 22.5208 5.50901 22.4792 5.4673C22.4389 5.42659 22.39 5.39541 22.3361 5.37606C22.2811 5.35426 22.222 5.34512 22.163 5.34932ZM19.6005 9.99292C19.4331 10.1608 19.2196 10.2753 18.9871 10.3217C18.755 10.3691 18.5142 10.3467 18.2949 10.2572C18.0769 10.1666 17.8908 10.0133 17.7601 9.81674C17.6297 9.61993 17.5602 9.38902 17.5603 9.15292C17.5616 8.91585 17.6328 8.68441 17.7648 8.48752C17.8975 8.29053 18.0851 8.13683 18.3044 8.0455C18.5231 7.95418 18.7639 7.92955 18.9965 7.97472C19.2285 8.02052 19.4415 8.13444 19.6084 8.30191C19.7186 8.4131 19.8058 8.54496 19.8649 8.68992C19.924 8.83488 19.9539 8.99008 19.9529 9.14663C19.9514 9.4641 19.8248 9.76817 19.6005 9.99292Z" fill="white"/>
<path d="M5.57855 16.532L8.47451 13.6345C8.54757 13.5612 8.63436 13.5031 8.72991 13.4635C8.82547 13.4238 8.9279 13.4034 9.03136 13.4034C9.13481 13.4034 9.23725 13.4238 9.3328 13.4635C9.42836 13.5031 9.51515 13.5612 9.58821 13.6345C9.73566 13.782 9.81849 13.982 9.81849 14.1905C9.81849 14.3991 9.73566 14.5991 9.58821 14.7466L6.69068 17.6441C6.54319 17.7916 6.34318 17.8744 6.13462 17.8744C5.92606 17.8744 5.72604 17.7916 5.57855 17.6441C5.4311 17.4967 5.34827 17.2966 5.34827 17.0881C5.34827 16.8795 5.4311 16.6795 5.57855 16.532Z" fill="#3F7FBC"/>
<path d="M6.83218 19.9502L11.4789 15.3035C11.6264 15.156 11.8264 15.0732 12.035 15.0732C12.2435 15.0732 12.4436 15.156 12.5911 15.3035C12.7385 15.451 12.8213 15.651 12.8213 15.8595C12.8213 16.0681 12.7385 16.2681 12.5911 16.4156L7.94903 21.0623C7.80154 21.2098 7.60153 21.2926 7.39297 21.2926C7.18441 21.2926 6.98439 21.2098 6.8369 21.0623C6.68882 20.9155 6.60514 20.7158 6.60426 20.5072C6.60337 20.2987 6.68536 20.0983 6.83218 19.9502Z" fill="#52BDCA"/>
<path d="M10.2505 21.2023L13.1402 18.3064C13.2877 18.1589 13.4877 18.0761 13.6963 18.0761C13.9048 18.0761 14.1048 18.1589 14.2523 18.3064C14.3998 18.4539 14.4826 18.6539 14.4826 18.8624C14.4826 19.071 14.3998 19.271 14.2523 19.4185L11.3627 22.3145C11.2152 22.4619 11.0152 22.5447 10.8066 22.5447C10.5981 22.5447 10.398 22.4619 10.2505 22.3145C10.1031 22.167 10.0203 21.9669 10.0203 21.7584C10.0203 21.5498 10.1031 21.3498 10.2505 21.2023Z" fill="#5DB467"/>
</svg>
