<svg width="80" height="40" fill="none" xmlns="http://www.w3.org/2000/svg"><path d="M6.022 34.595a6.094 6.094 0 0 1-2.325-.465 6.02 6.02 0 0 1-2.626-2.084A5.914 5.914 0 0 1 0 28.61V1.45a.883.883 0 0 1 1.768 0v27.16c0 .89.259 1.727.748 2.42a4.25 4.25 0 0 0 1.858 1.47 4.266 4.266 0 0 0 2.356.271 4.19 4.19 0 0 0 2.244-1.183l10.288-10.263a.886.886 0 0 1 1.25 0 .88.88 0 0 1 0 1.247L10.223 32.835a5.947 5.947 0 0 1-3.192 1.674 6.002 6.002 0 0 1-1.009.086Z" fill="#4080BE"/><path opacity=".3" d="M7.586 34.292a3.295 3.295 0 0 1-1.44-1.139 3.173 3.173 0 0 1-.2-.322 4.32 4.32 0 0 1-2.051-.561 4.895 4.895 0 0 0 1.063 2.231 6.006 6.006 0 0 0 2.069.009c.235-.041.467-.096.694-.165l-.135-.053Z" fill="#020203"/><path d="M8.33 37.304a5.125 5.125 0 0 1-1.954-.39 5.054 5.054 0 0 1-2.21-1.754 4.975 4.975 0 0 1-.901-2.89V4.69c0-.487.396-.88.884-.88s.884.394.884.88v27.58c0 .7.195 1.331.579 1.874.355.503.853.897 1.44 1.14a3.309 3.309 0 0 0 1.826.21 3.194 3.194 0 0 0 1.738-.917l11.74-11.712c.346-.344.906-.363 1.25-.019a.902.902 0 0 1 0 1.265l-11.74 11.713a5 5 0 0 1-2.686 1.408 5.042 5.042 0 0 1-.85.072Z" fill="#53BECB"/><path opacity=".3" d="M9.242 36.262a2.167 2.167 0 0 1-.345-.772l-.02.004a3.294 3.294 0 0 1-1.794-.198c.059.72.302 1.4.712 1.98a5.047 5.047 0 0 0 1.384-.045c.31-.053.612-.137.904-.248a2.295 2.295 0 0 1-.841-.72Z" fill="#020203"/><path d="M10.618 40a4.132 4.132 0 0 1-1.577-.315 4.09 4.09 0 0 1-1.782-1.414 4.019 4.019 0 0 1-.728-2.333V7.948a.883.883 0 0 1 1.768 0v27.99c0 .493.136.936.405 1.317.25.353.6.63 1.013.801.413.171.857.222 1.284.148.46-.079.871-.297 1.22-.645l11.651-11.622a.886.886 0 0 1 1.25 0 .88.88 0 0 1 0 1.247L13.473 38.805a4.042 4.042 0 0 1-2.169 1.136 4.048 4.048 0 0 1-.686.059Z" fill="#5EB568"/><path d="m28.896 21.483 1.288-1.285c2.874-2.867 3.396-5.814 3.486-6.919a.41.41 0 0 0-.44-.445c-1.115.083-4.093.579-6.97 3.449l-1.29 1.287-.397-.08a2.362 2.362 0 0 0-2.114.646l-1.538 1.535a.346.346 0 0 0 .178.588l1.288.258c.36.073.693.25.955.511l2.086 2.081c.262.261.44.592.512.952l.258 1.285a.349.349 0 0 0 .59.177l1.538-1.535a2.356 2.356 0 0 0 .648-2.109l-.078-.396Zm.056-3.971a1.205 1.205 0 0 1-.001-1.706 1.214 1.214 0 0 1 1.712-.001 1.205 1.205 0 0 1-.002 1.707 1.21 1.21 0 0 1-1.71 0ZM21.787 0v10.191h-2.81V0h2.81ZM28.988 3.234c.525.278.927.663 1.206 1.154.279.49.419 1.052.419 1.684v.877h-4.725v.679c0 .32.102.566.305.736.203.17.466.255.787.255.33 0 .584-.101.759-.304.175-.203.262-.483.262-.842h2.596a2.64 2.64 0 0 1-.42 1.458c-.278.434-.685.776-1.22 1.026-.534.25-1.165.375-1.893.375h-.213c-.757 0-1.435-.139-2.036-.418a3.301 3.301 0 0 1-1.42-1.217c-.344-.533-.517-1.168-.517-1.904v-.439c0-.736.163-1.371.489-1.904a3.146 3.146 0 0 1 1.369-1.217c.586-.278 1.258-.418 2.015-.418h.355c.73.002 1.357.14 1.882.419ZM26.17 4.819a.968.968 0 0 0-.284.7v.199h1.958V5.52a.968.968 0 0 0-.284-.701.936.936 0 0 0-.695-.29.936.936 0 0 0-.695.29ZM38.969 2.958l-2.37 7.233h-3.248L31.01 2.958h2.994l1.064 4.133h.099l1.064-4.133h2.738ZM45.445 3.234c.525.278.927.663 1.206 1.154.279.49.419 1.052.419 1.684v.877h-4.725v.679c0 .32.102.566.305.736.203.17.466.255.787.255.331 0 .584-.101.759-.304.175-.203.262-.483.262-.842h2.596a2.64 2.64 0 0 1-.419 1.458c-.279.434-.686.776-1.22 1.026-.534.25-1.166.375-1.894.375h-.213c-.757 0-1.435-.139-2.036-.418a3.301 3.301 0 0 1-1.419-1.217c-.345-.533-.518-1.168-.518-1.904v-.439c0-.736.163-1.371.489-1.904a3.146 3.146 0 0 1 1.369-1.217c.586-.278 1.258-.418 2.015-.418h.355c.73.002 1.357.14 1.882.419Zm-2.817 1.585a.968.968 0 0 0-.284.7v.199h1.958V5.52a.968.968 0 0 0-.284-.701.936.936 0 0 0-.695-.29.938.938 0 0 0-.695.29ZM53.972 3.333c.345.345.518.819.518 1.422v.241l-.028.538-.028.354h-2.299v-.34a.74.74 0 0 0-.177-.502.537.537 0 0 0-.419-.205.554.554 0 0 0-.433.205.742.742 0 0 0-.177.502v4.642H48.19V2.958h2.1l.312 1.047c.057-.113.166-.264.326-.453.161-.189.378-.358.653-.51.274-.151.586-.226.936-.226.625.001 1.11.173 1.455.517ZM61.606 3.454c.582.425.873.977.873 1.656v2.986c0 .18.043.311.128.396a.424.424 0 0 0 .312.127c.18 0 .345-.042.497-.127v1.514c-.303.217-.78.326-1.433.326-.606 0-1.083-.102-1.433-.304-.35-.203-.568-.483-.653-.842a3.845 3.845 0 0 1-1 .835c-.364.207-.811.311-1.341.311-.757 0-1.372-.146-1.844-.439-.473-.292-.71-.868-.71-1.727 0-.65.185-1.153.554-1.507.369-.354.896-.599 1.582-.736s1.558-.205 2.618-.205v-.41c0-.264-.088-.472-.262-.623a.974.974 0 0 0-.66-.226c-.218 0-.423.064-.617.191s-.291.286-.291.474v.057H55.23a1.638 1.638 0 0 1 .405-1.295c.279-.326.676-.585 1.192-.778.515-.193 1.114-.29 1.795-.29h.468c1.095 0 1.934.211 2.516.636Zm-3.228 3.8c-.293.165-.44.394-.44.686 0 .453.284.68.85.68a.954.954 0 0 0 .965-.991v-.624c-.623.001-1.082.084-1.375.25ZM71.48 2.916c-.26.293-.65.51-1.17.651.254.198.451.429.588.694.137.264.206.538.206.821 0 .415-.128.797-.383 1.147a2.63 2.63 0 0 1-1.036.828 3.313 3.313 0 0 1-1.419.304h-.979c-.275 0-.478.04-.61.12-.133.08-.199.182-.199.304 0 .142.057.25.17.326.114.076.326.113.638.113H69.6c.757 0 1.324.201 1.703.602.378.401.568.937.568 1.607 0 .425-.13.823-.39 1.196a2.79 2.79 0 0 1-1.043.892 3.046 3.046 0 0 1-1.405.333h-3.76c-.464 0-.863-.165-1.199-.495a1.623 1.623 0 0 1-.504-1.203v-.071c0-.33.104-.635.312-.913.208-.278.463-.488.766-.63a1.6 1.6 0 0 1-.497-.538 1.393 1.393 0 0 1 .192-1.642c.251-.283.56-.472.93-.566a2.81 2.81 0 0 1-.796-.764 1.63 1.63 0 0 1-.298-.934c0-.67.28-1.217.837-1.642.558-.425 1.367-.637 2.426-.637h.397c.341 0 .653.028.936.085.36-.236.615-.465.766-.687.151-.222.227-.408.227-.559h2.1c.002.545-.128.965-.388 1.258Zm-5.377 7.445a.515.515 0 0 0-.206.41c0 .16.07.299.206.418a.745.745 0 0 0 .504.177h2.03a.768.768 0 0 0 .503-.17.515.515 0 0 0 .206-.41c0-.161-.069-.3-.206-.418a.745.745 0 0 0-.504-.177h-2.029a.761.761 0 0 0-.504.17Zm.98-5.895a.882.882 0 0 0-.249.63c0 .246.083.455.248.63a.815.815 0 0 0 .617.262.813.813 0 0 0 .617-.262.883.883 0 0 0 .248-.63.886.886 0 0 0-.248-.63.818.818 0 0 0-.617-.262.813.813 0 0 0-.617.262ZM78.376 3.234c.525.278.927.663 1.206 1.154.279.49.419 1.052.419 1.684v.877h-4.725v.679c0 .32.102.566.305.736.203.17.466.255.787.255.33 0 .584-.101.759-.304.175-.203.262-.483.262-.842h2.596a2.64 2.64 0 0 1-.42 1.458c-.278.434-.685.776-1.22 1.026-.534.25-1.165.375-1.893.375h-.213c-.757 0-1.435-.139-2.036-.418a3.301 3.301 0 0 1-1.42-1.217c-.344-.533-.517-1.168-.517-1.904v-.439c0-.736.163-1.371.49-1.904a3.146 3.146 0 0 1 1.369-1.217c.586-.278 1.258-.418 2.015-.418h.355c.73.002 1.356.14 1.88.419ZM75.56 4.819a.968.968 0 0 0-.284.7v.199h1.958V5.52a.968.968 0 0 0-.284-.701.936.936 0 0 0-.695-.29.936.936 0 0 0-.695.29ZM42.848 16.208c.525.278.927.663 1.206 1.154.28.491.418 1.052.418 1.684v.877h-4.725v.68c0 .32.102.565.305.735.203.17.466.255.787.255.331 0 .584-.1.76-.304.174-.203.261-.483.261-.842h2.596a2.64 2.64 0 0 1-.419 1.458c-.279.434-.686.776-1.22 1.026-.535.25-1.166.375-1.894.375h-.213c-.757 0-1.435-.139-2.036-.418a3.3 3.3 0 0 1-1.419-1.217c-.345-.533-.518-1.168-.518-1.904v-.439c0-.736.163-1.37.49-1.904a3.146 3.146 0 0 1 1.368-1.217c.586-.278 1.258-.418 2.015-.418h.355c.732.002 1.36.141 1.883.42Zm-2.816 1.586a.968.968 0 0 0-.284.701v.198h1.958v-.198a.968.968 0 0 0-.284-.7.936.936 0 0 0-.695-.29.936.936 0 0 0-.695.29ZM50.46 23.165l-.255-.835c-.52.651-1.13.977-1.83.977a3.08 3.08 0 0 1-1.582-.41c-.468-.274-.837-.687-1.107-1.238-.269-.552-.404-1.229-.404-2.03v-.157c0-.802.121-1.479.362-2.03.241-.553.568-.966.98-1.239.41-.274.876-.41 1.397-.41.89 0 1.513.297 1.873.892v-3.708h2.81v10.191l-2.244-.003Zm-2.07-5.315c-.17.194-.256.427-.256.701v2.052c0 .274.085.507.255.701.17.194.378.29.624.29a.8.8 0 0 0 .624-.29c.17-.193.255-.427.255-.7V18.55c0-.274-.085-.507-.255-.7a.8.8 0 0 0-.624-.29.8.8 0 0 0-.624.29ZM61.187 21.07c0 .18.043.311.128.396a.424.424 0 0 0 .312.127c.18 0 .345-.042.497-.127v1.515c-.303.217-.78.326-1.433.326-.605 0-1.069-.097-1.39-.29a1.632 1.632 0 0 1-.695-.856c-.16.246-.426.498-.794.757a2.078 2.078 0 0 1-1.22.39h-.397c-.388 0-.745-.095-1.07-.284a2.094 2.094 0 0 1-.774-.77 2.093 2.093 0 0 1-.284-1.07v-5.25h2.81v4.528c0 .236.072.437.22.602a.688.688 0 0 0 .531.248.688.688 0 0 0 .532-.248.878.878 0 0 0 .22-.602v-4.529h2.81l-.003 5.137Z" fill="#002147"/></svg>